<svg width="24" height="24" viewBox="0 0 24 24" fill="none" xmlns="http://www.w3.org/2000/svg">
<g filter="url(#filter0_d_2_2477)">
<path opacity="0.95" d="M19.8709 9.36061C19.5376 10.2661 19.4312 10.5348 19.4312 10.5348" stroke="#F6F6F6" stroke-width="0.408" stroke-linecap="round" stroke-linejoin="round"/>
<path opacity="0.95" d="M17.8164 4.90576L19.6419 5.16232C20.4243 5.27227 21.2121 5.63445 20.8034 6.79564C20.6752 7.12579 20.551 7.57258 20.3867 8.01373" stroke="#F6F6F6" stroke-width="0.408" stroke-linecap="round" stroke-linejoin="round"/>
<path d="M21.9024 4.85521C21.8855 4.83281 21.8855 4.83281 21.8659 4.83005L21.1735 3.63102L20.5661 4.10653L10.1603 2.64409C9.02157 2.48405 7.92671 3.15146 7.55338 4.24078L2.81422 18.0173L1.91293 18.732L2.67007 20.0403C2.89524 20.4325 3.29681 20.7093 3.74838 20.7727L14.4094 22.271C15.5481 22.4311 16.6234 21.7609 16.9967 20.6716L22.0257 6.11449C22.1623 5.71302 22.1276 5.24742 21.9024 4.85521Z" fill="#006891"/>
<path d="M20.3238 3.23785L9.62322 1.73398C8.47814 1.57305 7.37746 2.24224 7.00243 3.33492L1.97023 17.9397C1.69875 18.7254 2.12102 19.5885 2.92806 19.8627C3.00426 19.8935 3.10298 19.9074 3.18195 19.9185L13.9022 21.4251C15.0473 21.5861 16.1282 20.9141 16.5033 19.8214L21.5552 5.21942C21.8267 4.4337 21.4044 3.57057 20.5974 3.2964C20.5184 3.2853 20.4225 3.25172 20.3238 3.23785Z" fill="#007DB9"/>
<path d="M7.39732 5.86137C7.46004 5.68438 7.3674 5.49005 7.19041 5.42733C7.01342 5.36461 6.81909 5.45725 6.75637 5.63424L7.39732 5.86137ZM6.21399 7.1648C6.15127 7.34179 6.24391 7.53611 6.4209 7.59883C6.5979 7.66155 6.79222 7.56892 6.85494 7.39193L6.21399 7.1648ZM10.9575 3.16219C11.1434 3.18833 11.3154 3.05877 11.3415 2.87282C11.3676 2.68687 11.2381 2.51495 11.0521 2.48881L10.9575 3.16219ZM7.83 3.5844L7.5095 3.47083L7.50805 3.47511L7.83 3.5844ZM7.12409 4.60615C7.06373 4.78396 7.15894 4.97703 7.33675 5.0374C7.51456 5.09776 7.70764 5.00255 7.768 4.82474L7.12409 4.60615ZM6.75637 5.63424L6.21399 7.1648L6.85494 7.39193L7.39732 5.86137L6.75637 5.63424ZM11.0521 2.48881L9.50765 2.27175L9.41301 2.94513L10.9575 3.16219L11.0521 2.48881ZM9.50765 2.27175C8.6506 2.1513 7.80248 2.64413 7.50953 3.47084L8.15047 3.69796C8.3321 3.18543 8.86599 2.86825 9.41301 2.94513L9.50765 2.27175ZM7.50805 3.47511L7.12409 4.60615L7.768 4.82474L8.15195 3.69369L7.50805 3.47511Z" fill="#F6F6F6"/>
<path opacity="0.09" d="M21.1419 6.2813L5.37616 20.142L10.2087 20.8212L18.6287 13.5761L21.1419 6.2813Z" fill="white"/>
<path d="M16.4085 11.304L7.89411 10.1074C7.53686 10.0572 7.27777 9.74058 7.30757 9.38455C7.31584 9.32568 7.32136 9.28643 7.34948 9.23035L9.04237 4.38525C9.20503 3.94784 9.6461 3.68963 10.1053 3.73416L18.6197 4.93078C18.9797 4.96137 19.219 5.27516 19.1892 5.63118C19.1809 5.69006 19.1726 5.74893 19.1445 5.80501L17.4715 10.6529C17.3088 11.0903 16.8677 11.3485 16.4085 11.304Z" fill="#00D7FC"/>
<path opacity="0.33" fill-rule="evenodd" clip-rule="evenodd" d="M14.2082 6.79237C15.5666 6.34291 17.1164 6.26053 18.9026 6.51157L18.6953 7.12281C17.0083 6.88572 15.5804 6.96521 14.3322 7.35012L18.4207 7.92472L18.1935 8.53317L13.192 7.83026C12.7537 8.06884 12.3551 8.31299 11.951 8.5964C11.9386 8.60493 11.9263 8.61343 11.914 8.6219C11.2812 9.05917 10.7717 9.41125 10.1487 9.32368C9.51356 9.23443 9.22196 8.57308 9.24246 7.27518L8.09133 7.1134L8.29867 6.50216L9.29102 6.64163C9.28496 6.54072 9.30151 6.42297 9.3153 6.32485C9.41957 5.43897 9.58061 4.58108 9.78411 3.70914L10.4275 3.73953C10.2295 4.57221 10.0685 5.4301 9.96971 6.27674C9.95831 6.35785 9.95221 6.43972 9.94631 6.51885C9.9408 6.59286 9.93546 6.66449 9.92613 6.73089L13.181 7.18834C13.5063 7.03393 13.8487 6.90194 14.2082 6.79237ZM10.3523 8.73202C10.6699 8.77665 11.0034 8.56338 11.6083 8.14808L12.2781 7.70191L9.89648 7.36719L9.89648 7.36719C9.90584 7.58864 9.9152 7.81008 9.94716 8.01469C9.95565 8.05996 9.96333 8.10313 9.97063 8.14419C10.033 8.49473 10.0681 8.69208 10.3523 8.73202Z" fill="#40A4FF"/>
<path d="M8.66323 12.2839L8.63165 12.2233L8.495 12.0543C8.51208 12.0754 6.15665 12.9991 6.13957 12.978L6.27622 13.147L6.34454 13.2316C6.46669 13.3611 6.63591 13.441 6.81287 13.4659L7.56003 13.5709C8.07383 13.6244 8.55285 13.3546 8.73793 12.8937C8.82531 12.7 8.79729 12.4713 8.66323 12.2839Z" fill="#006891"/>
<path d="M8.57641 11.8555L8.53015 11.7564C8.41285 11.5918 8.22631 11.4915 8.0099 11.4611L7.2426 11.3533C6.72852 11.2995 6.26942 11.5683 6.08758 12.0057C5.99793 12.2153 6.02123 12.4778 6.17533 12.6661L6.26349 12.7526C6.391 12.8446 6.52362 12.9003 6.68101 12.9224L7.42863 13.0275C7.94271 13.0812 8.42148 12.8152 8.60588 12.3596C8.6682 12.2017 8.67404 12.0174 8.57641 11.8555Z" fill="#60DAF8"/>
<path opacity="0.44" d="M11.1806 3.86547L8.39464 6.25438L7.35589 9.25151C7.22777 9.59617 7.39545 9.96226 7.73596 10.0907C7.79179 10.1187 7.83085 10.1242 7.88946 10.1324L8.04573 10.1544L14.7554 4.36788C14.7554 4.36788 11.1806 3.86547 11.1806 3.86547Z" fill="#F6F6F6"/>
<path opacity="0.53" d="M15.4821 4.4703L8.8657 10.2261L11.3763 10.5943L17.5418 4.75977L15.4821 4.4703Z" fill="#F6F6F6"/>
<path d="M15.2826 15.8873L15.2346 15.8185L15.1068 15.6353C15.1416 15.6608 15.1547 15.704 15.1679 15.7472C15.3078 16.1181 15.1155 16.2563 14.8394 16.4448C14.5792 16.6562 14.3858 16.9389 14.2649 17.2525C14.1252 17.5635 14.0391 17.9026 13.9182 18.2162C13.8219 18.4919 13.6718 18.7394 13.487 18.9614C13.3136 19.1023 13.1401 19.2432 12.9347 19.3383C12.6454 19.4836 12.3117 19.8086 12.0257 19.5205L11.9241 19.4235L12.052 19.6068L12.1319 19.7213C12.2495 19.8412 12.3916 19.9231 12.5611 19.947L13.2956 20.0502C13.7881 20.0987 14.2348 19.7896 14.419 19.299C14.4435 19.2611 14.4464 19.2408 14.4521 19.2003L15.3233 16.5541C15.4111 16.3392 15.4076 16.0908 15.2826 15.8873Z" fill="#006891"/>
<path d="M15.1914 15.745C15.1781 15.7022 15.1648 15.6594 15.1296 15.634C15.0194 15.4547 14.8438 15.3277 14.6322 15.3184L13.9112 15.2171C13.4151 15.1678 12.9468 15.4705 12.7597 15.9763L12.754 16.0165L11.844 18.7747C11.7939 18.9928 11.8227 19.2015 11.9329 19.3808L12.0355 19.477C12.1352 19.5934 12.2814 19.6549 12.4332 19.6762L13.1542 19.7775C13.6124 19.8215 14.056 19.5563 14.2537 19.1133L15.1884 16.3177C15.2517 16.1424 15.2609 15.939 15.1914 15.745Z" fill="#00D7FC"/>
<g opacity="0.5">
<path d="M7.94658 12.0389L7.22438 11.9374C6.92304 11.9317 6.65455 12.0954 6.54262 12.3544" stroke="#F6F6F6" stroke-width="0.34" stroke-linecap="round" stroke-linejoin="round"/>
</g>
<path d="M12.4869 12.6943L12.4352 12.6308L12.2976 12.4616C12.3346 12.4856 9.96537 13.4074 9.94816 13.3862L10.066 13.5526L10.1546 13.64C10.2776 13.7696 10.448 13.8497 10.6261 13.8748L11.3779 13.9804C11.895 14.0344 12.3767 13.765 12.5428 13.3014C12.6305 13.1077 12.6219 12.8818 12.4869 12.6943Z" fill="#006891"/>
<path d="M12.393 12.539C12.3784 12.5 12.3638 12.4609 12.327 12.4373C12.2095 12.2728 12.0253 12.1545 11.8061 12.1422L11.0577 12.037C10.543 11.9831 10.0638 12.2486 9.88196 12.6853C9.80944 12.9155 9.85764 13.1442 9.98972 13.3477L10.078 13.434C10.2057 13.5259 10.3385 13.5816 10.496 13.6037L11.2445 13.7089C11.7591 13.7628 12.2383 13.4973 12.403 13.0397C12.485 12.8848 12.4686 12.716 12.393 12.539Z" fill="#60DAF8"/>
<g opacity="0.5">
<path d="M11.6175 12.5832L10.9138 12.4843C10.615 12.4606 10.344 12.6423 10.2321 12.9012" stroke="#F6F6F6" stroke-width="0.34" stroke-linecap="round" stroke-linejoin="round"/>
</g>
<path d="M16.1437 13.2361L16.1121 13.1755L15.9755 13.0064C15.9925 13.0276 13.6568 13.9541 13.62 13.9302L13.7567 14.0992L13.825 14.1837C13.9472 14.3132 14.1164 14.3932 14.2933 14.4181L15.0405 14.5231C15.5543 14.5766 16.0333 14.3068 16.2184 13.8459C16.3058 13.6521 16.2778 13.4235 16.1437 13.2361Z" fill="#006891"/>
<path d="M16.2108 13.0823L16.1448 12.9805C16.0276 12.8159 15.8411 12.7156 15.6247 12.6852L14.8773 12.5801C14.3633 12.5264 13.8846 12.7924 13.7028 13.2298C13.6132 13.4394 13.6365 13.7019 13.7905 13.8903L13.8787 13.9767C14.0061 14.0687 14.1387 14.1244 14.2961 14.1465L15.0435 14.2515C15.5575 14.3052 16.0362 14.0392 16.2205 13.5837C16.2828 13.4258 16.2861 13.2596 16.2108 13.0823Z" fill="#60DAF8"/>
<g opacity="0.5">
<path d="M15.5813 12.9935L14.8777 12.8946C14.5788 12.871 14.2893 13.05 14.1774 13.3089" stroke="#F6F6F6" stroke-width="0.34" stroke-linecap="round" stroke-linejoin="round"/>
</g>
<path d="M7.85452 14.7333L7.82281 14.6726L7.68565 14.5035C7.7028 14.5247 5.36004 15.4502 5.32316 15.4263L5.46032 15.5954L5.5289 15.6799C5.6515 15.8095 5.82128 15.8895 5.99882 15.9145L6.7484 16.0198C7.26385 16.0736 7.74427 15.804 7.92973 15.3431C7.99758 15.1466 7.9891 14.9207 7.85452 14.7333Z" fill="#006891"/>
<path d="M7.75854 14.5723L7.71213 14.4742C7.5946 14.3112 7.40795 14.2117 7.19154 14.1813L6.42424 14.0735C5.91019 14.0196 5.42941 14.2999 5.26794 14.735C5.17864 14.9422 5.20485 15.1839 5.35921 15.3704L5.44748 15.4561C5.57511 15.5473 5.70526 15.6205 5.86265 15.6426L6.61027 15.7477C7.12433 15.8016 7.60258 15.5392 7.78625 15.0889C7.84831 14.9328 7.85387 14.7505 7.75854 14.5723Z" fill="#60DAF8"/>
<g opacity="0.5">
<path d="M7.13898 14.6061L6.36863 14.4979C6.05007 14.4714 5.763 14.6508 5.64613 14.909" stroke="#F6F6F6" stroke-width="0.34" stroke-linecap="round" stroke-linejoin="round"/>
</g>
<path d="M11.5357 15.4145L11.5038 15.3538L11.3464 15.1819C11.3834 15.2058 9.0142 16.1276 8.99699 16.1064L9.11485 16.2728L9.20346 16.3602C9.32648 16.4898 9.49681 16.57 9.67489 16.595L10.4268 16.7007C10.9438 16.7546 11.4256 16.4852 11.5916 16.0216C11.6793 15.8279 11.6707 15.602 11.5357 15.4145Z" fill="#006891"/>
<path d="M11.4377 15.1189C11.423 15.0802 11.4084 15.0416 11.3714 15.0181C11.2536 14.8553 11.069 14.7379 10.8495 14.7254L10.1002 14.62C9.58497 14.5659 9.10578 14.8277 8.94166 15.2801C8.85226 15.487 8.87866 15.7284 9.03345 15.9147L9.12197 16.0003C9.22769 16.1066 9.3804 16.1646 9.53816 16.1868L10.2875 16.2921C10.8027 16.3462 11.2819 16.0844 11.446 15.6321C11.5279 15.479 11.5333 15.2969 11.4377 15.1189Z" fill="#60DAF8"/>
<g opacity="0.5">
<path d="M10.9424 15.1495L10.1683 15.0408C9.83986 15.0129 9.54729 15.1732 9.42543 15.4491" stroke="#F6F6F6" stroke-width="0.34" stroke-linecap="round" stroke-linejoin="round"/>
</g>
<g opacity="0.5">
<path d="M14.5423 15.7375L13.8445 15.6394C13.5479 15.6175 13.2792 15.7969 13.1622 16.0963L12.3521 18.5292" stroke="#F6F6F6" stroke-width="0.34" stroke-linecap="round" stroke-linejoin="round"/>
</g>
<path d="M6.77396 17.5902L6.73955 17.548L6.5847 17.3576C6.62169 17.3816 4.2499 18.3217 4.23527 18.2822L4.35313 18.4486L4.44174 18.536C4.56476 18.6656 4.73509 18.7457 4.91317 18.7708L5.66505 18.8764C6.18207 18.9304 6.66383 18.661 6.82987 18.1974C6.91762 18.0037 6.90902 17.7778 6.77396 17.5902Z" fill="#006891"/>
<path d="M6.80711 17.2939C6.79247 17.2552 6.77784 17.2166 6.74101 17.1932C6.62345 17.0303 6.43931 16.913 6.22037 16.9006L5.47275 16.7955C4.9587 16.7415 4.48051 17.0035 4.31661 17.4559C4.22735 17.6627 4.25361 17.9042 4.408 18.0904C4.42263 18.129 4.45946 18.1525 4.49629 18.176C4.60173 18.2822 4.75408 18.3402 4.91148 18.3623L5.6591 18.4674C6.17315 18.5214 6.65135 18.2594 6.83491 17.8098C6.89694 17.6539 6.90247 17.4718 6.80711 17.2939Z" fill="#60DAF8"/>
<g opacity="0.5">
<path d="M6.22103 17.1931L5.51734 17.0942C5.21869 17.0694 4.95193 17.2207 4.84 17.4797" stroke="#F6F6F6" stroke-width="0.34" stroke-linecap="round" stroke-linejoin="round"/>
</g>
<path d="M10.5838 17.9986L10.5301 17.9536L10.3962 17.7663C10.4329 17.7901 8.07797 18.7327 8.04387 18.6904L8.1803 18.8594L8.24851 18.9439C8.37047 19.0734 8.53943 19.1533 8.71614 19.1782L9.48189 19.2858C9.99497 19.3392 10.476 19.051 10.6387 18.6056C10.726 18.4119 10.7177 18.186 10.5838 17.9986Z" fill="#006891"/>
<path d="M10.3632 17.841C10.3486 17.8024 10.3339 17.7637 10.2971 17.7403C10.1794 17.5774 9.99512 17.4601 9.77602 17.4476L9.02782 17.3424C8.51338 17.2884 8.03486 17.5503 7.8512 17.9999C7.76189 18.2068 7.80789 18.451 7.94272 18.6345L8.05077 18.7228C8.15883 18.8112 8.28909 18.8843 8.44661 18.9065L9.21449 19.0144C9.72893 19.0684 10.21 18.7886 10.3714 18.3541C10.4335 18.1983 10.439 18.0162 10.3632 17.841Z" fill="#60DAF8"/>
<g opacity="0.5">
<path d="M9.91244 17.7395L9.20875 17.6406C8.9101 17.6158 8.64334 17.7671 8.53141 18.0261" stroke="#F6F6F6" stroke-width="0.34" stroke-linecap="round" stroke-linejoin="round"/>
</g>
</g>
<defs>
<filter id="filter0_d_2_2477" x="0.138062" y="1.71021" width="21.9681" height="21.0845" filterUnits="userSpaceOnUse" color-interpolation-filters="sRGB">
<feFlood flood-opacity="0" result="BackgroundImageFix"/>
<feColorMatrix in="SourceAlpha" type="matrix" values="0 0 0 0 0 0 0 0 0 0 0 0 0 0 0 0 0 0 127 0" result="hardAlpha"/>
<feOffset dx="-1.75" dy="0.5"/>
<feColorMatrix type="matrix" values="0 0 0 0 0.93617 0 0 0 0 0.85608 0 0 0 0 0.781331 0 0 0 0.8 0"/>
<feBlend mode="normal" in2="BackgroundImageFix" result="effect1_dropShadow_2_2477"/>
<feBlend mode="normal" in="SourceGraphic" in2="effect1_dropShadow_2_2477" result="shape"/>
</filter>
</defs>
</svg>
