<svg width="24" height="24" viewBox="0 0 24 24" fill="none" xmlns="http://www.w3.org/2000/svg">
<g filter="url(#filter0_d_101_1154)">
<path d="M14.2232 22.7938C14.3428 22.8902 14.4804 22.9612 14.6277 23.0025C14.7547 23.0306 14.8869 23.0225 15.0097 22.9794C15.1389 22.9165 15.2423 22.8098 15.3018 22.6777C15.549 22.2371 15.1445 21.5412 14.9871 21.1005L14.3356 19.3841L13.5042 17.2038L12.5829 14.8147L11.684 12.4489L10.8976 10.3846L10.3133 8.85373L10.0211 8.1116V8.06519L8.76282 8.57551V8.62187L9.07751 9.41047L9.66173 10.9877L10.4707 13.0753L11.3695 15.4179L12.2683 17.807L13.0998 19.964L13.7512 21.6804L13.9759 22.2837C14.0193 22.355 14.0497 22.4335 14.0658 22.5156C14.0996 22.618 14.1531 22.7125 14.2232 22.7938Z" fill="#4EE5FF"/>
<mask id="mask0_101_1154" style="mask-type:alpha" maskUnits="userSpaceOnUse" x="8" y="8" width="8" height="16">
<path fill-rule="evenodd" clip-rule="evenodd" d="M14.2232 22.7938C14.3428 22.8902 14.4804 22.9612 14.6277 23.0025C14.7547 23.0306 14.8869 23.0225 15.0097 22.9794C15.1389 22.9165 15.2423 22.8098 15.3018 22.6777C15.549 22.2371 15.1445 21.5412 14.9871 21.1005L14.3356 19.3841L13.5042 17.2038L12.5829 14.8147L11.684 12.4489L10.8976 10.3846L10.3133 8.85373L10.0211 8.1116V8.06519L8.76282 8.57551V8.62187L9.07751 9.41047L9.66173 10.9877L10.4707 13.0753L11.3695 15.4179L12.2683 17.807L13.0998 19.964L13.7512 21.6804L13.9759 22.2837C14.0193 22.355 14.0497 22.4335 14.0658 22.5156C14.0996 22.618 14.1531 22.7125 14.2232 22.7938Z" fill="white"/>
</mask>
<g mask="url(#mask0_101_1154)">
<path d="M13.9778 17.513C13.2872 18.251 12.4077 18.4489 11.6435 18.2217C10.8794 17.9945 10.8655 15.8594 10.8655 15.8594L12.8885 14.9932L14.0556 16.8043" fill="#098AC7"/>
</g>
<path d="M17.4851 21.2348C17.6046 21.3312 17.7422 21.4022 17.8895 21.4436C18.0165 21.4716 18.1487 21.4635 18.2715 21.4203C18.4008 21.3575 18.5041 21.2507 18.5636 21.1187C18.8108 20.678 18.4063 19.9822 18.2489 19.5414L17.5975 17.8251L16.766 15.6448L15.8448 13.2557L14.9459 10.8899L14.1595 8.82556L13.5752 7.29471L13.2831 6.55252V6.5061L12.0248 7.01642V7.06279L12.3395 7.85139L12.9237 9.4286L13.7326 11.5161L14.6314 13.8588L15.5303 16.2478L16.3617 18.4049L17.0132 20.1213L17.2379 20.7246C17.2812 20.7959 17.3117 20.8744 17.3278 20.9565C17.3615 21.0589 17.415 21.1535 17.4851 21.2348Z" fill="#00D7FC"/>
<mask id="mask1_101_1154" style="mask-type:alpha" maskUnits="userSpaceOnUse" x="12" y="6" width="7" height="16">
<path fill-rule="evenodd" clip-rule="evenodd" d="M17.4851 21.2348C17.6046 21.3312 17.7422 21.4022 17.8895 21.4436C18.0165 21.4716 18.1487 21.4635 18.2715 21.4203C18.4008 21.3575 18.5041 21.2507 18.5636 21.1187C18.8108 20.678 18.4063 19.9822 18.2489 19.5414L17.5975 17.8251L16.766 15.6448L15.8448 13.2557L14.9459 10.8899L14.1595 8.82556L13.5752 7.29471L13.2831 6.55252V6.5061L12.0248 7.01642V7.06279L12.3395 7.85139L12.9237 9.4286L13.7326 11.5161L14.6314 13.8588L15.5303 16.2478L16.3617 18.4049L17.0132 20.1213L17.2379 20.7246C17.2812 20.7959 17.3117 20.8744 17.3278 20.9565C17.3615 21.0589 17.415 21.1535 17.4851 21.2348Z" fill="white"/>
</mask>
<g mask="url(#mask1_101_1154)">
<path d="M17.2397 15.9538C16.5491 16.6918 15.6696 16.8897 14.9054 16.6625C14.1413 16.4353 14.1273 14.3002 14.1273 14.3002L16.1503 13.434L17.3175 15.2451" fill="#098AC7"/>
</g>
<path d="M12.7632 12.8324L18.1589 10.6989L18.7587 12.2332C19.0944 13.0723 16.9361 14.7023 13.9625 15.877C10.9888 17.0517 8.3029 17.3153 7.96716 16.4763L7.36743 14.9661L12.7632 12.8324Z" fill="#00D7FC"/>
<mask id="mask2_101_1154" style="mask-type:alpha" maskUnits="userSpaceOnUse" x="7" y="10" width="12" height="7">
<path fill-rule="evenodd" clip-rule="evenodd" d="M12.7632 12.8324L18.1589 10.6989L18.7587 12.2332C19.0944 13.0723 16.9361 14.7023 13.9625 15.877C10.9888 17.0517 8.3029 17.3153 7.96716 16.4763L7.36743 14.9661L12.7632 12.8324Z" fill="white"/>
</mask>
<g mask="url(#mask2_101_1154)">
<path d="M13.0312 16.1662C10.3719 17.1614 8.05963 17.351 7.75876 16.569L7.18066 15.0761L8.26752 14.6259L11.0888 15.1235C11.4819 15.6448 12.0829 16.024 13.0312 16.1662Z" fill="#03BAD9"/>
</g>
<path d="M18.1622 10.8626C17.8316 10.0161 15.1526 10.2879 12.1784 11.4696C9.20423 12.6513 7.06116 14.2953 7.39151 15.1418C7.72185 15.9882 10.4011 15.7164 13.3753 14.5347C16.3494 13.3531 18.4927 11.7091 18.1622 10.8626Z" fill="#4EE5FF"/>
<path d="M5.42246 6.89083C4.69299 4.61233 5.87073 2.16303 8.11415 1.29305C10.3576 0.423065 12.8961 1.43122 13.9158 3.59715L16.5954 10.3265C16.8589 10.9899 15.1839 12.2694 12.8153 13.1698C10.4467 14.0703 8.36495 14.2835 8.10208 13.62L5.42246 6.89083Z" fill="#00D7FC"/>
<mask id="mask3_101_1154" style="mask-type:alpha" maskUnits="userSpaceOnUse" x="5" y="0" width="12" height="15">
<path fill-rule="evenodd" clip-rule="evenodd" d="M5.42246 6.89083C4.69299 4.61233 5.87073 2.16303 8.11415 1.29305C10.3576 0.423065 12.8961 1.43122 13.9158 3.59715L16.5954 10.3265C16.8589 10.9899 15.1839 12.2694 12.8153 13.1698C10.4467 14.0703 8.36495 14.2835 8.10208 13.62L5.42246 6.89083Z" fill="white"/>
</mask>
<g mask="url(#mask3_101_1154)">
<ellipse opacity="0.729" cx="9.54764" cy="12.197" rx="3.6337" ry="3.60802" fill="#04CBED"/>
<path d="M12.1355 10.3088C9.79402 11.096 8.21914 12.682 8.61788 13.8514C9.01661 15.0207 11.2381 15.3304 13.5795 14.5433C15.9209 13.7562 17.4959 12.1701 17.0971 11.0008C16.6983 9.8314 14.477 9.52145 12.1355 10.3088Z" fill="#0AC0DF"/>
<path d="M10.8394 13.3436C10.957 13.2994 11.0521 13.2104 11.1035 13.0964C11.1549 12.9824 11.1585 12.8527 11.1133 12.7361L10.2845 10.5706C10.0827 10.0439 10.1801 9.45028 10.5398 9.01433C10.8995 8.57837 11.4666 8.3666 12.0266 8.45913C12.5866 8.55165 13.054 8.93433 13.252 9.46244L14.0808 11.628C14.1392 11.7868 14.2789 11.9022 14.4469 11.9303C14.6148 11.9584 14.785 11.8949 14.8926 11.7639C15.0002 11.6329 15.0286 11.4546 14.967 11.297L14.1382 9.13146C13.824 8.28507 13.0769 7.67073 12.1807 7.52167C11.2844 7.37261 10.3764 7.7117 9.8014 8.4102C9.22639 9.10869 9.07254 10.0595 9.39826 10.9016L10.2271 13.0671C10.3197 13.3109 10.5934 13.4345 10.8394 13.3436Z" fill="#098AC7"/>
<path opacity="0.459" d="M5.26597 7.2354C4.81679 6.06859 4.87549 4.76908 5.42806 3.64685C6.16882 9.2861 8.90051 12.1759 12.2341 13.4806C10.0349 14.3195 8.09031 14.4826 7.85877 13.8534L5.26597 7.2354Z" fill="#02B9D9"/>
</g>
<path d="M10.5336 2.41171C9.65256 2.15263 8.79892 2.4557 8.62696 3.08857C8.455 3.72144 9.02986 4.44462 9.91089 4.7037C10.7919 4.96278 11.6456 4.65977 11.8175 4.02684C11.9895 3.39391 11.4146 2.67085 10.5336 2.41171Z" fill="#4EE5FF"/>
<path fill-rule="evenodd" clip-rule="evenodd" d="M7.78322 2.78622C7.88452 2.75599 10.1778 2.09777 11.9655 3.67325H11.9654C12.0986 3.78947 12.3022 3.78282 12.4271 3.65816C12.486 3.59917 12.5175 3.51934 12.5145 3.43714C12.5115 3.35493 12.4742 3.27749 12.4113 3.22271C10.3366 1.39477 7.69622 2.16531 7.58405 2.19917C7.50267 2.22235 7.43435 2.27658 7.3946 2.34955C7.35485 2.42252 7.34704 2.50805 7.37294 2.58671C7.4316 2.75058 7.61357 2.83906 7.78322 2.78622ZM12.7038 4.40876C12.8508 4.57644 12.9816 4.75698 13.0946 4.94808H13.0947C13.1861 5.09719 13.382 5.14954 13.5387 5.06676C13.6137 5.0286 13.6695 4.96232 13.6933 4.8832C13.7171 4.80408 13.7067 4.71894 13.6647 4.64739C13.5322 4.42367 13.3789 4.21223 13.2068 4.01573C13.0894 3.88473 12.8871 3.86671 12.7472 3.9748C12.6808 4.02568 12.6386 4.10081 12.6304 4.18275C12.6222 4.26469 12.6487 4.34633 12.7038 4.40876Z" fill="white"/>
</g>
<defs>
<filter id="filter0_d_101_1154" x="3.20691" y="0.981201" width="15.5862" height="22.5377" filterUnits="userSpaceOnUse" color-interpolation-filters="sRGB">
<feFlood flood-opacity="0" result="BackgroundImageFix"/>
<feColorMatrix in="SourceAlpha" type="matrix" values="0 0 0 0 0 0 0 0 0 0 0 0 0 0 0 0 0 0 127 0" result="hardAlpha"/>
<feOffset dx="-2" dy="0.5"/>
<feColorMatrix type="matrix" values="0 0 0 0 0.93617 0 0 0 0 0.85608 0 0 0 0 0.781331 0 0 0 0.8 0"/>
<feBlend mode="normal" in2="BackgroundImageFix" result="effect1_dropShadow_101_1154"/>
<feBlend mode="normal" in="SourceGraphic" in2="effect1_dropShadow_101_1154" result="shape"/>
</filter>
</defs>
</svg>
