<svg width="24" height="24" viewBox="0 0 24 24" fill="none" xmlns="http://www.w3.org/2000/svg">
<g filter="url(#filter0_d_101_1581)">
<path fill-rule="evenodd" clip-rule="evenodd" d="M19.5471 5.36958C19.5458 5.38892 19.5523 5.40798 19.5652 5.42252C20.3741 7.51027 20.0576 10.3409 18.7552 12.2923C17.0294 14.9433 13.8836 16.1992 11.2636 15.6152C11.0198 15.5867 10.7903 15.7357 10.7181 15.9694L9.41798 19.4544C9.18961 20.0537 8.92619 20.7436 8.71478 21.2567C8.67349 21.3569 8.63492 21.4597 8.59619 21.563C8.43658 21.9885 8.2742 22.4215 7.90756 22.7074C7.39793 23.0987 6.69179 23.1131 6.16652 22.7429C6.16338 22.7408 6.15994 22.7385 6.15623 22.736C6.03503 22.655 5.61849 22.3766 5.48027 21.9646C5.33783 21.5399 6.16313 22.0705 6.16313 22.0705C6.21167 21.729 6.30676 21.3957 6.44576 21.0798C6.55931 20.7758 6.69878 20.4819 6.83861 20.1872C6.95912 19.9333 7.07991 19.6787 7.18458 19.4167L8.87531 15.3465C8.98045 15.1336 8.98045 14.8509 8.73456 14.727L8.16929 14.4454C5.92062 13.4193 4.56396 10.8365 4.56396 10.8365L4.93365 10.4473C4.65215 9.2618 4.73977 7.81102 5.51363 6.09497C5.84094 5.35925 6.25418 4.66454 6.74479 4.02524C7.38249 3.19063 8.22419 2.53274 9.18961 2.11433C9.30979 2.06779 9.43014 2.07024 9.55303 2.07274C9.66365 2.07499 9.77632 2.07728 9.89281 2.04393C9.89281 1.60126 10.016 0.893328 10.561 0.999771C11.1059 1.10621 11.7763 1.93636 11.6881 2.30919C11.6095 2.64178 11.3644 2.77538 11.1117 2.91309C11.0812 2.92975 11.0505 2.94648 11.02 2.96362C10.6732 3.16389 10.3536 3.40768 10.0692 3.68901C9.13703 4.57379 8.4864 5.74128 8.04662 6.94426C7.60684 8.14724 7.32533 9.45666 7.57179 10.7306C7.66891 11.2224 7.84773 11.6947 8.10089 12.1279C8.38558 12.566 8.82493 12.8818 9.33205 13.0127C9.40773 13.054 9.49773 13.0603 9.57851 13.0301C9.66602 12.9999 9.71753 12.9188 9.77411 12.8298C9.78405 12.8141 9.79415 12.7982 9.80462 12.7823C9.98882 12.1358 10.1531 11.5248 10.31 10.9412C10.8273 9.01733 11.2645 7.39121 12.0708 5.77339C12.8294 4.2522 14.2364 2.97826 15.8016 2.81888L16.3822 2.25569C17.7219 2.76149 18.8084 3.7719 19.4069 5.06883L19.5121 5.31664L19.5471 5.36958ZM11.6046 13.9771C11.6532 14.0467 11.7276 14.0942 11.8113 14.1092C16.9621 14.9585 18.1068 7.88142 17.1396 5.97107C16.1724 4.06072 14.5897 5.08629 13.6575 6.78488C12.8361 8.28168 12.3426 10.3964 11.8037 12.7056C11.7311 13.0169 11.6576 13.3317 11.5824 13.6491C11.5682 13.6772 11.5581 13.7071 11.5524 13.738C11.5373 13.8215 11.5561 13.9075 11.6046 13.9771Z" fill="#F95707"/>
<path d="M16.8352 2.48263C14.6137 1.37269 12.3582 2.97618 11.2996 5.07267C10.241 7.16915 8.86562 12.5427 8.86562 12.5427C8.86562 12.5427 8.23091 12.2253 7.5435 11.3088C6.88944 10.4192 6.60544 9.31499 6.75012 8.22412C6.84483 7.5494 7.01592 6.88735 7.26015 6.25047C7.72031 5.03733 8.35559 3.89206 9.30708 2.99357C9.50773 2.79272 9.72601 2.6099 9.95936 2.4473C10.186 2.28857 10.453 2.18313 10.6819 2.00702C10.9109 1.83091 11.0701 1.33736 10.7176 1.10965C10.3651 0.881943 9.87095 1.03898 9.5009 1.10965C7.22671 1.54992 5.65751 3.36374 4.72302 5.38955C2.58994 10.1114 5.63994 12.6661 7.31455 13.67C7.6771 13.8834 8.13605 13.8482 8.461 13.582L8.61967 13.4407L8.30232 14.163L6.39819 18.6735C6.16868 19.2371 5.86889 19.766 5.65751 20.3297C5.44613 20.8933 5.28745 21.3515 5.40873 21.8625C5.54133 22.3651 6.06027 22.6663 6.5682 22.5355H6.575C6.59767 22.5293 6.62091 22.5226 6.64301 22.5142C7.22445 22.2854 7.41883 21.669 7.66308 21.1581C8.39016 19.5018 9.30652 16.9118 9.94236 15.2382L10.0659 14.9017C10.5544 13.6126 10.9608 12.2944 11.2826 10.9549C11.7235 9.0699 12.182 7.34302 12.9045 6.07548C13.8566 4.38394 15.4082 3.36205 16.3954 5.28243C17.3826 7.2028 16.3059 13.6527 11.6515 13.4401C11.2834 13.4193 10.9457 13.6417 10.823 13.9858C10.6762 14.3872 10.8835 14.8307 11.2877 14.9797C11.365 15.0076 11.4463 15.0231 11.5286 15.0256C13.9087 15.1311 16.5003 13.8804 18.0162 11.5898C19.9209 8.68403 19.7265 3.90945 16.8352 2.48263Z" fill="#FF803A"/>
<path opacity="0.95" fill-rule="evenodd" clip-rule="evenodd" d="M5.83151 4.83136C6.03264 4.9566 6.09416 5.22117 5.96893 5.4223C5.80665 5.68291 5.68759 5.96737 5.61613 6.26488C5.5608 6.49526 5.32919 6.63717 5.09881 6.58184C4.86843 6.52651 4.72653 6.2949 4.78186 6.06452C4.87486 5.67727 5.02976 5.30737 5.24058 4.96878C5.36582 4.76765 5.63039 4.70613 5.83151 4.83136Z" fill="white"/>
<path fill-rule="evenodd" clip-rule="evenodd" d="M9.28177 1.85116C9.36257 2.06416 9.25539 2.30234 9.04238 2.38314C7.82894 2.84341 6.92853 3.90784 6.58906 4.45947C6.46966 4.6535 6.21559 4.71399 6.02156 4.59459C5.82754 4.47519 5.76705 4.22112 5.88644 4.02709C6.28031 3.38706 7.3049 2.15983 8.74979 1.61176C8.9628 1.53097 9.20098 1.63815 9.28177 1.85116Z" fill="white"/>
<path fill-rule="evenodd" clip-rule="evenodd" d="M15.7684 2.95803C15.7947 3.18433 15.6326 3.3891 15.4063 3.41542C14.4912 3.52182 13.967 3.79129 13.5814 4.13347C13.2566 4.42174 13.021 4.76383 12.7326 5.18255C12.6554 5.29465 12.5744 5.41225 12.4869 5.53578C12.3553 5.72168 12.0978 5.76564 11.9119 5.63396C11.726 5.50227 11.682 5.24482 11.8137 5.05891C11.8842 4.95939 11.9542 4.85746 12.0248 4.75455C12.3197 4.32485 12.6265 3.87794 13.0338 3.51643C13.5649 3.04507 14.2553 2.7187 15.311 2.59594C15.5373 2.56963 15.7421 2.73174 15.7684 2.95803Z" fill="white"/>
</g>
<defs>
<filter id="filter0_d_101_1581" x="2.99207" y="0.989014" width="17.0159" height="22.522" filterUnits="userSpaceOnUse" color-interpolation-filters="sRGB">
<feFlood flood-opacity="0" result="BackgroundImageFix"/>
<feColorMatrix in="SourceAlpha" type="matrix" values="0 0 0 0 0 0 0 0 0 0 0 0 0 0 0 0 0 0 127 0" result="hardAlpha"/>
<feOffset dx="-1" dy="0.5"/>
<feColorMatrix type="matrix" values="0 0 0 0 0.93617 0 0 0 0 0.85608 0 0 0 0 0.781331 0 0 0 0.8 0"/>
<feBlend mode="normal" in2="BackgroundImageFix" result="effect1_dropShadow_101_1581"/>
<feBlend mode="normal" in="SourceGraphic" in2="effect1_dropShadow_101_1581" result="shape"/>
</filter>
</defs>
</svg>
