<svg width="24" height="24" viewBox="0 0 24 24" fill="none" xmlns="http://www.w3.org/2000/svg">
<g filter="url(#filter0_d_2_2366)">
<path d="M20.4746 18.1015C20.4756 18.091 20.4766 18.0813 20.4774 18.0717C20.4788 18.0568 20.4801 18.0419 20.4814 18.0271C20.4858 17.9731 20.4873 17.9407 20.4873 17.9396C20.4873 17.9386 20.4873 17.9367 20.4873 17.935C20.4927 17.8407 20.4949 17.7497 20.4945 17.663C20.4945 17.6096 20.4937 17.5583 20.4908 17.4977C20.4831 17.294 20.4609 17.091 20.4245 16.8905C20.4204 16.865 20.3946 16.7132 20.3365 16.4975L20.3348 16.491C20.3315 16.4788 20.3279 16.4661 20.3244 16.4534C20.2779 16.2834 20.2333 16.1547 20.2039 16.0775L20.1966 16.0585C20.1923 16.0468 20.1881 16.0352 20.1836 16.0233C20.151 15.9374 20.1069 15.828 20.0655 15.739C19.9883 15.5694 19.9025 15.4038 19.8084 15.243C19.8023 15.2325 19.7964 15.2219 19.7902 15.2114C19.7863 15.2047 19.783 15.1987 19.779 15.1918C19.7694 15.1757 19.7581 15.1595 19.7482 15.1439C19.7299 15.1144 19.7125 15.0848 19.6931 15.0553L15.6195 8.89125C15.6255 8.82905 15.6319 8.76426 15.6381 8.70029L15.6712 8.36002C15.6897 8.17107 15.7084 7.9793 15.7275 7.78624L15.7838 7.21246C15.7892 7.15606 15.7948 7.09965 15.7998 7.04406C15.8201 7.02794 15.8434 7.00901 15.8696 6.98645L15.8724 6.98403C15.8938 6.96566 15.9162 6.94543 15.9399 6.92311C15.9503 6.91344 15.9605 6.90329 15.9709 6.89306C15.9889 6.87549 16.0069 6.85761 16.0253 6.83811C16.0363 6.82642 16.047 6.81393 16.0579 6.80177C16.074 6.78428 16.089 6.76656 16.1045 6.74786C16.113 6.73755 16.1212 6.72683 16.1296 6.7162C16.1477 6.69307 16.1652 6.6693 16.1823 6.64465C16.1857 6.63973 16.1894 6.63538 16.1928 6.63038C16.1962 6.62539 16.1992 6.61975 16.203 6.61427C16.2096 6.6042 16.2168 6.59477 16.2231 6.58446C16.2312 6.571 16.2367 6.56028 16.244 6.54828C16.2541 6.53128 16.2639 6.51468 16.2725 6.49888C16.2811 6.48309 16.2886 6.46802 16.2962 6.45352C16.3037 6.43902 16.3112 6.42379 16.3175 6.41001C16.3229 6.39792 16.3282 6.38584 16.3335 6.37391C16.3486 6.33838 16.3617 6.30502 16.3726 6.27545C16.3826 6.24862 16.3908 6.22138 16.3982 6.19447C16.4076 6.16177 16.4153 6.12858 16.4212 6.09504C16.4323 6.03703 16.4383 5.98747 16.4419 5.95806L16.472 5.64841L16.5087 5.27148L16.5494 4.85377C16.5599 4.74564 16.5701 4.64089 16.5795 4.54412C16.5819 4.51455 16.5836 4.48297 16.5846 4.45025C16.5874 4.39506 16.586 4.33972 16.5803 4.28475C16.5803 4.28282 16.5797 4.28056 16.5796 4.27863C16.5791 4.27283 16.5783 4.26686 16.5777 4.26098C16.5754 4.23882 16.5721 4.21562 16.5682 4.19152C16.5655 4.17388 16.5621 4.15591 16.5584 4.1377C16.5533 4.11176 16.5479 4.08653 16.5423 4.06422C16.5418 4.0618 16.541 4.05978 16.5405 4.05745C16.5394 4.0531 16.538 4.04858 16.5368 4.04415C16.5132 3.95888 16.4831 3.87553 16.4469 3.79485C16.4289 3.75502 16.4089 3.71618 16.3868 3.6785C16.3837 3.67278 16.3815 3.66746 16.3783 3.66166C16.3751 3.65586 16.3695 3.64764 16.3655 3.64063L16.3562 3.62395C16.3466 3.60679 16.3341 3.58697 16.3206 3.5665L16.3168 3.56078C16.2995 3.53475 16.2803 3.50752 16.2599 3.4802C16.2537 3.47215 16.2476 3.46353 16.2413 3.45515C16.2039 3.40498 16.1639 3.35677 16.1216 3.31067C16.1166 3.30544 16.1105 3.29947 16.1055 3.29399C16.0966 3.28433 16.0887 3.27466 16.0795 3.26499C16.0404 3.22365 15.9911 3.17805 15.9419 3.13389C15.9189 3.11238 15.8964 3.09183 15.8755 3.07346C15.8565 3.05678 15.8345 3.03897 15.8117 3.021C15.789 3.00304 15.7627 2.98257 15.7364 2.96331C15.7155 2.94776 15.695 2.93269 15.6766 2.91916C15.443 2.75437 15.1921 2.61583 14.9283 2.50605C14.9184 2.50178 14.9082 2.49735 14.8985 2.49324C14.8866 2.48824 14.8762 2.48341 14.864 2.47841C14.8441 2.47035 14.825 2.46326 14.8053 2.45545L14.7702 2.44167C14.7243 2.42389 14.6794 2.40718 14.6354 2.39155L14.6063 2.38107L14.5845 2.3735C14.5718 2.36915 14.5589 2.36456 14.5464 2.36037C14.511 2.34836 14.4695 2.3349 14.4206 2.32008C14.4061 2.31565 14.3928 2.31202 14.3787 2.30767C14.3532 2.3001 14.3283 2.2926 14.2998 2.28463C14.1841 2.2524 14.0841 2.22822 14.0025 2.20937L13.9952 2.20768C13.9574 2.19914 13.9223 2.19156 13.8939 2.18528C13.7794 2.16054 13.5862 2.12388 13.3408 2.09535C13.2705 2.08657 13.2296 2.08214 13.1479 2.07618C13.063 2.06884 12.9747 2.06248 12.8814 2.05845C12.8368 2.05555 12.7838 2.05458 12.732 2.05386C12.7057 2.05329 12.6797 2.05289 12.6543 2.05273L12.6263 2.05225C12.6157 2.05225 12.5682 2.05225 12.5018 2.05321C12.4829 2.05321 12.4648 2.05394 12.4466 2.05442H12.4459C12.2547 2.0578 12.0638 2.07208 11.8742 2.09721L11.8111 2.10663C11.7742 2.11179 11.7363 2.11751 11.6971 2.12388C11.5708 2.14338 11.508 2.15538 11.3885 2.18318C11.368 2.18794 11.3492 2.19366 11.329 2.19865C11.2908 2.208 11.252 2.2181 11.2127 2.22895C11.18 2.23789 11.1472 2.24667 11.1155 2.2561C11.0527 2.27488 10.9888 2.2951 10.9239 2.3179H10.9232C10.8175 2.35497 10.7252 2.39356 10.6434 2.43111L10.6255 2.43917C10.6 2.45109 10.5758 2.46278 10.5527 2.47438C10.4606 2.51945 10.3712 2.56978 10.2849 2.62514L10.2777 2.62957L10.2721 2.63328C10.2603 2.64133 10.2497 2.6481 10.2392 2.65519C10.2287 2.66228 10.2163 2.67058 10.2043 2.67936C10.187 2.69153 10.1722 2.70241 10.1592 2.7116C10.1169 2.74213 10.0765 2.77493 10.0375 2.80829C10.0328 2.81215 10.0274 2.81634 10.0229 2.82029C10.0196 2.82303 10.016 2.8265 10.0126 2.8294L10.0073 2.83415C9.98967 2.84962 9.9715 2.86638 9.95294 2.88467C9.92369 2.91271 9.89612 2.94059 9.87024 2.96831L9.8573 2.98168C9.85296 2.9862 9.8483 2.9924 9.84396 2.99724C9.825 3.01835 9.80729 3.03892 9.79084 3.05896C9.78795 3.06258 9.78521 3.06548 9.78232 3.06911C9.75285 3.10501 9.72558 3.14268 9.70067 3.18191C9.68412 3.20867 9.67037 3.23115 9.6576 3.25234C9.6502 3.26458 9.64313 3.27651 9.63622 3.28852C9.62015 3.31704 9.60544 3.34427 9.59137 3.37425C9.59073 3.37562 9.58977 3.37715 9.58912 3.37852C9.58848 3.37989 9.5876 3.38206 9.58679 3.38376C9.58543 3.38682 9.58398 3.3902 9.58261 3.39326C9.56236 3.43831 9.54058 3.49205 9.52379 3.54193L9.5233 3.54321C9.51037 3.57987 9.49963 3.61727 9.49116 3.65521C9.48497 3.68011 9.48063 3.70163 9.47597 3.73063C9.47493 3.73652 9.47404 3.74328 9.47308 3.74933C9.46954 3.7735 9.46544 3.80235 9.45998 3.84231L9.32231 5.25617C9.32006 5.28558 9.31612 5.3386 9.31693 5.40717C9.31693 5.41651 9.31749 5.42546 9.31781 5.43464C9.31894 5.47243 9.32143 5.51345 9.32665 5.55833C9.32753 5.5659 9.32882 5.57299 9.32978 5.5804C9.33429 5.61468 9.3405 5.6504 9.34843 5.68757C9.3498 5.69393 9.351 5.70046 9.35245 5.70667C9.36049 5.74035 9.36924 5.77475 9.38041 5.80988C9.3817 5.81407 9.38283 5.81859 9.38411 5.82269C9.38411 5.82382 9.38476 5.82495 9.38508 5.82608C9.42075 5.93646 9.4682 6.04265 9.5266 6.14282C9.52965 6.1483 9.53327 6.15515 9.53616 6.16031C9.53673 6.16127 9.56767 6.21566 9.62352 6.29422L9.62673 6.29873C9.64755 6.32774 9.67077 6.35917 9.69826 6.39341V6.39389L9.69963 6.39542C9.71281 6.41154 9.72727 6.42886 9.7419 6.44603C9.72012 6.67003 9.69754 6.90192 9.67487 7.1343L9.66684 7.21681C9.63927 7.5002 9.61187 7.7814 9.58567 8.05085L9.56196 8.2937L4.44044 13.4783L4.37864 13.5409C4.34513 13.5748 4.31338 13.6093 4.2822 13.6438C4.27778 13.6487 4.27248 13.6533 4.26814 13.6582L4.2589 13.6686L4.25255 13.6757C4.18175 13.7554 4.09375 13.8553 4.03251 13.9372L4.02817 13.943C3.97055 14.016 3.90714 14.0985 3.86093 14.1676L3.85522 14.1764C3.79143 14.263 3.7324 14.3531 3.67842 14.4462C3.63928 14.5135 3.60874 14.5661 3.58198 14.6128C3.5786 14.6186 3.57467 14.625 3.57145 14.6306C3.55763 14.6547 3.54316 14.6812 3.52862 14.709C3.49551 14.7708 3.46561 14.8316 3.4276 14.9136L3.42615 14.9166C3.42486 14.9193 3.42374 14.9219 3.42245 14.9247C3.41675 14.937 3.41144 14.9483 3.40534 14.9617C3.40148 14.9698 3.39826 14.9778 3.39457 14.9859C3.38348 15.0106 3.37255 15.0351 3.36242 15.0596C3.3523 15.0841 3.34112 15.1098 3.33148 15.1334L3.32433 15.1512C3.29532 15.2232 3.27185 15.2873 3.25095 15.3482L3.24428 15.3675C3.23094 15.4069 3.21833 15.4453 3.20555 15.4843C3.15053 15.6581 3.10643 15.8352 3.07351 16.0145C3.03914 16.1924 3.0172 16.3724 3.00785 16.5533C3.00255 16.6155 3.0003 16.6951 3.0003 16.781C2.99933 16.8324 3.00086 16.8903 3.00303 16.9472C3.00367 16.967 3.00431 16.9865 3.0052 17.0063C3.00584 17.0234 3.00656 17.0407 3.00697 17.0563C3.00793 17.0895 3.01131 17.1356 3.01605 17.1872C3.02256 17.2705 3.03075 17.3472 3.04056 17.4066C3.04056 17.4088 3.04144 17.4115 3.04176 17.4137C3.05213 17.4914 3.06338 17.5633 3.07335 17.6116C3.10839 17.7808 3.1333 17.8936 3.16038 17.9951C3.16038 17.9958 3.16038 17.9965 3.16095 17.9972C3.16689 18.0195 3.17308 18.0412 3.17935 18.0628C3.19735 18.1252 3.21728 18.1879 3.23649 18.2401L3.2385 18.2456C3.25803 18.3014 3.28037 18.3631 3.30761 18.4369C3.34651 18.5423 3.3965 18.6544 3.44504 18.7555L3.48442 18.8385C3.55715 18.9913 3.63961 19.1394 3.7313 19.2816L3.75476 19.3171C3.80821 19.4016 3.87419 19.5007 3.95343 19.6101C3.96267 19.6231 3.97167 19.6353 3.98083 19.6479C4.14932 19.8769 4.33467 20.0929 4.53535 20.2941C4.60768 20.3687 4.69391 20.4495 4.78368 20.5299C4.90375 20.6396 5.02823 20.7479 5.13978 20.8377L5.15248 20.8484C5.25277 20.9333 5.39558 21.0351 5.50183 21.1122C5.63989 21.2124 5.81991 21.3333 5.97823 21.4293C6.10256 21.5076 6.26497 21.6019 6.45705 21.7046C6.64036 21.8064 6.74267 21.8548 7.03825 21.9947C7.19263 22.0677 7.40142 22.1591 7.56135 22.2189L7.65779 22.255C7.7711 22.2991 7.88629 22.3418 8.00336 22.383C8.24357 22.4706 8.38461 22.517 8.60449 22.5797L8.6462 22.5915C8.68268 22.6021 8.71965 22.6121 8.7563 22.6225C8.87403 22.6554 8.98494 22.6855 9.08789 22.7124C9.10002 22.7156 9.112 22.7191 9.12397 22.7223C9.14462 22.7275 9.16471 22.7323 9.18505 22.7374C9.38427 22.7881 9.55328 22.8267 9.68854 22.8521C9.85168 22.8861 9.98822 22.9117 10.0855 22.9289C10.1096 22.9333 10.1315 22.937 10.1544 22.941C10.2123 22.9509 10.245 22.9559 10.2462 22.9561L10.2496 22.9567L10.2599 22.9582C10.4282 22.9831 10.6462 23.021 10.8126 23.0388C10.9826 23.06 11.2101 23.0807 11.3805 23.0982C11.4957 23.1102 11.7137 23.1265 11.9942 23.1373C12.0935 23.142 12.36 23.1519 12.7196 23.148C12.7486 23.148 12.7778 23.1473 12.8073 23.1469L12.8368 23.1463C13.0121 23.1434 13.1939 23.1368 13.3783 23.1259L13.3999 23.1246C13.4422 23.122 13.4844 23.1193 13.5269 23.1165C13.7085 23.104 13.8965 23.087 14.0881 23.0643C14.2966 23.0407 14.5493 23.0067 14.8337 22.9547C14.9949 22.9259 15.1742 22.8902 15.3611 22.8468L15.3967 22.8383C15.6106 22.789 15.8099 22.7368 15.9897 22.6815L16.0168 22.6734C16.2494 22.6042 16.4059 22.549 16.4634 22.5279C16.6366 22.4673 16.8296 22.3942 17.0238 22.3079C17.1296 22.2608 17.2643 22.2013 17.3764 22.1454C17.4886 22.0914 17.6175 22.0187 17.7206 21.9649C17.7915 21.9279 17.8723 21.8799 17.9517 21.8308C17.9935 21.8056 18.0339 21.7805 18.0707 21.7562L18.1005 21.7366L18.1549 21.7016C18.1758 21.688 18.1985 21.6726 18.2215 21.6569C18.2818 21.6166 18.342 21.5757 18.3915 21.5381L18.4268 21.5111C18.4416 21.5006 18.457 21.4895 18.4706 21.4798C18.6131 21.3749 18.7499 21.2625 18.8805 21.1431C18.8823 21.1414 18.8846 21.1395 18.8864 21.1379L18.8937 21.1311C18.9661 21.0654 19.0431 20.9921 19.1228 20.9112C19.1327 20.9011 19.1415 20.8918 19.1511 20.8818C19.1645 20.8681 19.1778 20.8545 19.1913 20.8403L19.1962 20.835C19.2701 20.7572 19.3343 20.685 19.3921 20.6159C19.4644 20.5301 19.5261 20.4513 19.5789 20.3807L19.5962 20.3581C19.6427 20.2974 19.7007 20.2143 19.7638 20.1164C19.8482 19.9877 19.9256 19.8545 19.9957 19.7174C20.0178 19.6749 20.0396 19.6319 20.0606 19.5884C20.0774 19.5533 20.0927 19.5195 20.1077 19.4856L20.1085 19.4838C20.1246 19.4477 20.1397 19.4128 20.154 19.3784C20.1582 19.3686 20.1621 19.3595 20.1665 19.3496C20.1691 19.3435 20.1712 19.3375 20.1737 19.3315C20.1799 19.3161 20.1858 19.3013 20.1916 19.2862C20.2027 19.2582 20.2134 19.2304 20.2238 19.2028C20.228 19.1912 20.2318 19.1803 20.236 19.169C20.2444 19.1453 20.2527 19.1218 20.2606 19.0986C20.2677 19.0776 20.2743 19.0579 20.2806 19.0382C20.284 19.0279 20.2874 19.0175 20.2906 19.0073C20.3243 18.9003 20.3468 18.8166 20.3592 18.7677C20.3762 18.7025 20.3907 18.6381 20.4036 18.5754L20.4056 18.5659C20.4062 18.563 20.4066 18.5602 20.4073 18.5573C20.4131 18.5279 20.4187 18.4989 20.4238 18.4705C20.4466 18.3433 20.4633 18.2203 20.4746 18.1015Z" fill="white"/>
<mask id="mask0_2_2366" style="mask-type:alpha" maskUnits="userSpaceOnUse" x="3" y="2" width="18" height="22">
<path fill-rule="evenodd" clip-rule="evenodd" d="M20.4746 18.1015C20.4756 18.091 20.4766 18.0813 20.4774 18.0717C20.4788 18.0568 20.4801 18.0419 20.4814 18.0271C20.4858 17.9731 20.4873 17.9407 20.4873 17.9396C20.4873 17.9386 20.4873 17.9367 20.4873 17.935C20.4927 17.8407 20.4949 17.7497 20.4945 17.663C20.4945 17.6096 20.4937 17.5583 20.4908 17.4977C20.4831 17.294 20.4609 17.091 20.4245 16.8905C20.4204 16.865 20.3946 16.7132 20.3365 16.4975L20.3348 16.491C20.3315 16.4788 20.3279 16.4661 20.3244 16.4534C20.2779 16.2834 20.2333 16.1547 20.2039 16.0775L20.1966 16.0585C20.1923 16.0468 20.1881 16.0352 20.1836 16.0233C20.151 15.9374 20.1069 15.828 20.0655 15.739C19.9883 15.5694 19.9025 15.4038 19.8084 15.243C19.8023 15.2325 19.7964 15.2219 19.7902 15.2114C19.7863 15.2047 19.783 15.1987 19.779 15.1918C19.7694 15.1757 19.7581 15.1595 19.7482 15.1439C19.7299 15.1144 19.7125 15.0848 19.6931 15.0553L15.6195 8.89125C15.6255 8.82905 15.6319 8.76426 15.6381 8.70029L15.6712 8.36002C15.6897 8.17107 15.7084 7.9793 15.7275 7.78624L15.7838 7.21246C15.7892 7.15606 15.7948 7.09965 15.7998 7.04406C15.8201 7.02794 15.8434 7.00901 15.8696 6.98645L15.8724 6.98403C15.8938 6.96566 15.9162 6.94543 15.9399 6.92311C15.9503 6.91344 15.9605 6.90329 15.9709 6.89306C15.9889 6.87549 16.0069 6.85761 16.0253 6.83811C16.0363 6.82642 16.047 6.81393 16.0579 6.80177C16.074 6.78428 16.089 6.76656 16.1045 6.74786C16.113 6.73755 16.1212 6.72683 16.1296 6.7162C16.1477 6.69307 16.1652 6.6693 16.1823 6.64465C16.1857 6.63973 16.1894 6.63538 16.1928 6.63038C16.1962 6.62539 16.1992 6.61975 16.203 6.61427C16.2096 6.6042 16.2168 6.59477 16.2231 6.58446C16.2312 6.571 16.2367 6.56028 16.244 6.54828C16.2541 6.53128 16.2639 6.51468 16.2725 6.49888C16.2811 6.48309 16.2886 6.46802 16.2962 6.45352C16.3037 6.43902 16.3112 6.42379 16.3175 6.41001C16.3229 6.39792 16.3282 6.38584 16.3335 6.37391C16.3486 6.33838 16.3617 6.30502 16.3726 6.27545C16.3826 6.24862 16.3908 6.22138 16.3982 6.19447C16.4076 6.16177 16.4153 6.12858 16.4212 6.09504C16.4323 6.03703 16.4383 5.98747 16.4419 5.95806L16.472 5.64841L16.5087 5.27148L16.5494 4.85377C16.5599 4.74564 16.5701 4.64089 16.5795 4.54412C16.5819 4.51455 16.5836 4.48297 16.5846 4.45025C16.5874 4.39506 16.586 4.33972 16.5803 4.28475C16.5803 4.28282 16.5797 4.28056 16.5796 4.27863C16.5791 4.27283 16.5783 4.26686 16.5777 4.26098C16.5754 4.23882 16.5721 4.21562 16.5682 4.19152C16.5655 4.17388 16.5621 4.15591 16.5584 4.1377C16.5533 4.11176 16.5479 4.08653 16.5423 4.06422C16.5418 4.0618 16.541 4.05978 16.5405 4.05745C16.5394 4.0531 16.538 4.04858 16.5368 4.04415C16.5132 3.95888 16.4831 3.87553 16.4469 3.79485C16.4289 3.75502 16.4089 3.71618 16.3868 3.6785C16.3837 3.67278 16.3815 3.66746 16.3783 3.66166C16.3751 3.65586 16.3695 3.64764 16.3655 3.64063L16.3562 3.62395C16.3466 3.60679 16.3341 3.58697 16.3206 3.5665L16.3168 3.56078C16.2995 3.53475 16.2803 3.50752 16.2599 3.4802C16.2537 3.47215 16.2476 3.46353 16.2413 3.45515C16.2039 3.40498 16.1639 3.35677 16.1216 3.31067C16.1166 3.30544 16.1105 3.29947 16.1055 3.29399C16.0966 3.28433 16.0887 3.27466 16.0795 3.26499C16.0404 3.22365 15.9911 3.17805 15.9419 3.13389C15.9189 3.11238 15.8964 3.09183 15.8755 3.07346C15.8565 3.05678 15.8345 3.03897 15.8117 3.021C15.789 3.00304 15.7627 2.98257 15.7364 2.96331C15.7155 2.94776 15.695 2.93269 15.6766 2.91916C15.443 2.75437 15.1921 2.61583 14.9283 2.50605C14.9184 2.50178 14.9082 2.49735 14.8985 2.49324C14.8866 2.48824 14.8762 2.48341 14.864 2.47841C14.8441 2.47035 14.825 2.46326 14.8053 2.45545L14.7702 2.44167C14.7243 2.42389 14.6794 2.40718 14.6354 2.39155L14.6063 2.38107L14.5845 2.3735C14.5718 2.36915 14.5589 2.36456 14.5464 2.36037C14.511 2.34836 14.4695 2.3349 14.4206 2.32008C14.4061 2.31565 14.3928 2.31202 14.3787 2.30767C14.3532 2.3001 14.3283 2.2926 14.2998 2.28463C14.1841 2.2524 14.0841 2.22822 14.0025 2.20937L13.9952 2.20768C13.9574 2.19914 13.9223 2.19156 13.8939 2.18528C13.7794 2.16054 13.5862 2.12388 13.3408 2.09535C13.2705 2.08657 13.2296 2.08214 13.1479 2.07618C13.063 2.06884 12.9747 2.06248 12.8814 2.05845C12.8368 2.05555 12.7838 2.05458 12.732 2.05386C12.7057 2.05329 12.6797 2.05289 12.6543 2.05273L12.6263 2.05225C12.6157 2.05225 12.5682 2.05225 12.5018 2.05321C12.4829 2.05321 12.4648 2.05394 12.4466 2.05442H12.4459C12.2547 2.0578 12.0638 2.07208 11.8742 2.09721L11.8111 2.10663C11.7742 2.11179 11.7363 2.11751 11.6971 2.12388C11.5708 2.14338 11.508 2.15538 11.3885 2.18318C11.368 2.18794 11.3492 2.19366 11.329 2.19865C11.2908 2.208 11.252 2.2181 11.2127 2.22895C11.18 2.23789 11.1472 2.24667 11.1155 2.2561C11.0527 2.27488 10.9888 2.2951 10.9239 2.3179H10.9232C10.8175 2.35497 10.7252 2.39356 10.6434 2.43111L10.6255 2.43917C10.6 2.45109 10.5758 2.46278 10.5527 2.47438C10.4606 2.51945 10.3712 2.56978 10.2849 2.62514L10.2777 2.62957L10.2721 2.63328C10.2603 2.64133 10.2497 2.6481 10.2392 2.65519C10.2287 2.66228 10.2163 2.67058 10.2043 2.67936C10.187 2.69153 10.1722 2.70241 10.1592 2.7116C10.1169 2.74213 10.0765 2.77493 10.0375 2.80829C10.0328 2.81215 10.0274 2.81634 10.0229 2.82029C10.0196 2.82303 10.016 2.8265 10.0126 2.8294L10.0073 2.83415C9.98967 2.84962 9.9715 2.86638 9.95294 2.88467C9.92369 2.91271 9.89612 2.94059 9.87024 2.96831L9.8573 2.98168C9.85296 2.9862 9.8483 2.9924 9.84396 2.99724C9.825 3.01835 9.80729 3.03892 9.79084 3.05896C9.78795 3.06258 9.78521 3.06548 9.78232 3.06911C9.75285 3.10501 9.72558 3.14268 9.70067 3.18191C9.68412 3.20867 9.67037 3.23115 9.6576 3.25234C9.6502 3.26458 9.64313 3.27651 9.63622 3.28852C9.62015 3.31704 9.60544 3.34427 9.59137 3.37425C9.59073 3.37562 9.58977 3.37715 9.58912 3.37852C9.58848 3.37989 9.5876 3.38206 9.58679 3.38376C9.58543 3.38682 9.58398 3.3902 9.58261 3.39326C9.56236 3.43831 9.54058 3.49205 9.52379 3.54193L9.5233 3.54321C9.51037 3.57987 9.49963 3.61727 9.49116 3.65521C9.48497 3.68011 9.48063 3.70163 9.47597 3.73063C9.47493 3.73652 9.47404 3.74328 9.47308 3.74933C9.46954 3.7735 9.46544 3.80235 9.45998 3.84231L9.32231 5.25617C9.32006 5.28558 9.31612 5.3386 9.31693 5.40717C9.31693 5.41651 9.31749 5.42546 9.31781 5.43464C9.31894 5.47243 9.32143 5.51345 9.32665 5.55833C9.32753 5.5659 9.32882 5.57299 9.32978 5.5804C9.33429 5.61468 9.3405 5.6504 9.34843 5.68757C9.3498 5.69393 9.351 5.70046 9.35245 5.70667C9.36049 5.74035 9.36924 5.77475 9.38041 5.80988C9.3817 5.81407 9.38283 5.81859 9.38411 5.82269C9.38411 5.82382 9.38476 5.82495 9.38508 5.82608C9.42075 5.93646 9.4682 6.04265 9.5266 6.14282C9.52965 6.1483 9.53327 6.15515 9.53616 6.16031C9.53673 6.16127 9.56767 6.21566 9.62352 6.29422L9.62673 6.29873C9.64755 6.32774 9.67077 6.35917 9.69826 6.39341V6.39389L9.69963 6.39542C9.71281 6.41154 9.72727 6.42886 9.7419 6.44603C9.72012 6.67003 9.69754 6.90192 9.67487 7.1343L9.66684 7.21681C9.63927 7.5002 9.61187 7.7814 9.58567 8.05085L9.56196 8.2937L4.44044 13.4783L4.37864 13.5409C4.34513 13.5748 4.31338 13.6093 4.2822 13.6438C4.27778 13.6487 4.27248 13.6533 4.26814 13.6582L4.2589 13.6686L4.25255 13.6757C4.18175 13.7554 4.09375 13.8553 4.03251 13.9372L4.02817 13.943C3.97055 14.016 3.90714 14.0985 3.86093 14.1676L3.85522 14.1764C3.79143 14.263 3.7324 14.3531 3.67842 14.4462C3.63928 14.5135 3.60874 14.5661 3.58198 14.6128C3.5786 14.6186 3.57467 14.625 3.57145 14.6306C3.55763 14.6547 3.54316 14.6812 3.52862 14.709C3.49551 14.7708 3.46561 14.8316 3.4276 14.9136L3.42615 14.9166C3.42486 14.9193 3.42374 14.9219 3.42245 14.9247C3.41675 14.937 3.41144 14.9483 3.40534 14.9617C3.40148 14.9698 3.39826 14.9778 3.39457 14.9859C3.38348 15.0106 3.37255 15.0351 3.36242 15.0596C3.3523 15.0841 3.34112 15.1098 3.33148 15.1334L3.32433 15.1512C3.29532 15.2232 3.27185 15.2873 3.25095 15.3482L3.24428 15.3675C3.23094 15.4069 3.21833 15.4453 3.20555 15.4843C3.15053 15.6581 3.10643 15.8352 3.07351 16.0145C3.03914 16.1924 3.0172 16.3724 3.00785 16.5533C3.00255 16.6155 3.0003 16.6951 3.0003 16.781C2.99933 16.8324 3.00086 16.8903 3.00303 16.9472C3.00367 16.967 3.00431 16.9865 3.0052 17.0063C3.00584 17.0234 3.00656 17.0407 3.00697 17.0563C3.00793 17.0895 3.01131 17.1356 3.01605 17.1872C3.02256 17.2705 3.03075 17.3472 3.04056 17.4066C3.04056 17.4088 3.04144 17.4115 3.04176 17.4137C3.05213 17.4914 3.06338 17.5633 3.07335 17.6116C3.10839 17.7808 3.1333 17.8936 3.16038 17.9951C3.16038 17.9958 3.16038 17.9965 3.16095 17.9972C3.16689 18.0195 3.17308 18.0412 3.17935 18.0628C3.19735 18.1252 3.21728 18.1879 3.23649 18.2401L3.2385 18.2456C3.25803 18.3014 3.28037 18.3631 3.30761 18.4369C3.34651 18.5423 3.3965 18.6544 3.44504 18.7555L3.48442 18.8385C3.55715 18.9913 3.63961 19.1394 3.7313 19.2816L3.75476 19.3171C3.80821 19.4016 3.87419 19.5007 3.95343 19.6101C3.96267 19.6231 3.97167 19.6353 3.98083 19.6479C4.14932 19.8769 4.33467 20.0929 4.53535 20.2941C4.60768 20.3687 4.69391 20.4495 4.78368 20.5299C4.90375 20.6396 5.02823 20.7479 5.13978 20.8377L5.15248 20.8484C5.25277 20.9333 5.39558 21.0351 5.50183 21.1122C5.63989 21.2124 5.81991 21.3333 5.97823 21.4293C6.10256 21.5076 6.26497 21.6019 6.45705 21.7046C6.64036 21.8064 6.74267 21.8548 7.03825 21.9947C7.19263 22.0677 7.40142 22.1591 7.56135 22.2189L7.65779 22.255C7.7711 22.2991 7.88629 22.3418 8.00336 22.383C8.24357 22.4706 8.38461 22.517 8.60449 22.5797L8.6462 22.5915C8.68268 22.6021 8.71965 22.6121 8.7563 22.6225C8.87403 22.6554 8.98494 22.6855 9.08789 22.7124C9.10002 22.7156 9.112 22.7191 9.12397 22.7223C9.14462 22.7275 9.16471 22.7323 9.18505 22.7374C9.38427 22.7881 9.55328 22.8267 9.68854 22.8521C9.85168 22.8861 9.98822 22.9117 10.0855 22.9289C10.1096 22.9333 10.1315 22.937 10.1544 22.941C10.2123 22.9509 10.245 22.9559 10.2462 22.9561L10.2496 22.9567L10.2599 22.9582C10.4282 22.9831 10.6462 23.021 10.8126 23.0388C10.9826 23.06 11.2101 23.0807 11.3805 23.0982C11.4957 23.1102 11.7137 23.1265 11.9942 23.1373C12.0935 23.142 12.36 23.1519 12.7196 23.148C12.7486 23.148 12.7778 23.1473 12.8073 23.1469L12.8368 23.1463C13.0121 23.1434 13.1939 23.1368 13.3783 23.1259L13.3999 23.1246C13.4422 23.122 13.4844 23.1193 13.5269 23.1165C13.7085 23.104 13.8965 23.087 14.0881 23.0643C14.2966 23.0407 14.5493 23.0067 14.8337 22.9547C14.9949 22.9259 15.1742 22.8902 15.3611 22.8468L15.3967 22.8383C15.6106 22.789 15.8099 22.7368 15.9897 22.6815L16.0168 22.6734C16.2494 22.6042 16.4059 22.549 16.4634 22.5279C16.6366 22.4673 16.8296 22.3942 17.0238 22.3079C17.1296 22.2608 17.2643 22.2013 17.3764 22.1454C17.4886 22.0914 17.6175 22.0187 17.7206 21.9649C17.7915 21.9279 17.8723 21.8799 17.9517 21.8308C17.9935 21.8056 18.0339 21.7805 18.0707 21.7562L18.1005 21.7366L18.1549 21.7016C18.1758 21.688 18.1985 21.6726 18.2215 21.6569C18.2818 21.6166 18.342 21.5757 18.3915 21.5381L18.4268 21.5111C18.4416 21.5006 18.457 21.4895 18.4706 21.4798C18.6131 21.3749 18.7499 21.2625 18.8805 21.1431C18.8823 21.1414 18.8846 21.1395 18.8864 21.1379L18.8937 21.1311C18.9661 21.0654 19.0431 20.9921 19.1228 20.9112C19.1327 20.9011 19.1415 20.8918 19.1511 20.8818C19.1645 20.8681 19.1778 20.8545 19.1913 20.8403L19.1962 20.835C19.2701 20.7572 19.3343 20.685 19.3921 20.6159C19.4644 20.5301 19.5261 20.4513 19.5789 20.3807L19.5962 20.3581C19.6427 20.2974 19.7007 20.2143 19.7638 20.1164C19.8482 19.9877 19.9256 19.8545 19.9957 19.7174C20.0178 19.6749 20.0396 19.6319 20.0606 19.5884C20.0774 19.5533 20.0927 19.5195 20.1077 19.4856L20.1085 19.4838C20.1246 19.4477 20.1397 19.4128 20.154 19.3784C20.1582 19.3686 20.1621 19.3595 20.1665 19.3496C20.1691 19.3435 20.1712 19.3375 20.1737 19.3315C20.1799 19.3161 20.1858 19.3013 20.1916 19.2862C20.2027 19.2582 20.2134 19.2304 20.2238 19.2028C20.228 19.1912 20.2318 19.1803 20.236 19.169C20.2444 19.1453 20.2527 19.1218 20.2606 19.0986C20.2677 19.0776 20.2743 19.0579 20.2806 19.0382C20.284 19.0279 20.2874 19.0175 20.2906 19.0073C20.3243 18.9003 20.3468 18.8166 20.3592 18.7677C20.3762 18.7025 20.3907 18.6381 20.4036 18.5754L20.4056 18.5659C20.4062 18.563 20.4066 18.5602 20.4073 18.5573C20.4131 18.5279 20.4187 18.4989 20.4238 18.4705C20.4466 18.3433 20.4633 18.2203 20.4746 18.1015Z" fill="white"/>
</mask>
<g mask="url(#mask0_2_2366)">
<path d="M20.4746 18.1015C20.4756 18.091 20.4766 18.0813 20.4774 18.0717C20.4788 18.0568 20.4801 18.0419 20.4814 18.0271C20.4858 17.9731 20.4873 17.9407 20.4873 17.9396C20.4873 17.9386 20.4873 17.9367 20.4873 17.935C20.4927 17.8407 20.4949 17.7497 20.4945 17.663C20.4945 17.6096 20.4937 17.5583 20.4908 17.4977C20.4831 17.294 20.4609 17.091 20.4245 16.8905C20.4204 16.865 20.3946 16.7132 20.3365 16.4975L20.3348 16.491C20.3315 16.4788 20.3279 16.4661 20.3244 16.4534C20.2779 16.2834 20.2333 16.1547 20.2039 16.0775L20.1966 16.0585C20.1923 16.0468 20.1881 16.0352 20.1836 16.0233C20.151 15.9374 20.1069 15.828 20.0655 15.739C19.9883 15.5694 19.9025 15.4038 19.8084 15.243C19.8023 15.2325 19.7964 15.2219 19.7902 15.2114C19.7863 15.2047 19.783 15.1987 19.779 15.1918C19.7694 15.1757 19.7581 15.1595 19.7482 15.1439C19.7299 15.1144 19.7125 15.0848 19.6931 15.0553L15.6195 8.89125C15.6255 8.82905 15.6319 8.76426 15.6381 8.70029L15.6712 8.36002C15.6897 8.17107 15.7084 7.9793 15.7275 7.78624L15.7838 7.21246C15.7892 7.15606 15.7948 7.09965 15.7998 7.04406C15.8201 7.02794 15.8434 7.00901 15.8696 6.98645L15.8724 6.98403C15.8938 6.96566 15.9162 6.94543 15.9399 6.92311C15.9503 6.91344 15.9605 6.90329 15.9709 6.89306C15.9889 6.87549 16.0069 6.85761 16.0253 6.83811C16.0363 6.82642 16.047 6.81393 16.0579 6.80177C16.074 6.78428 16.089 6.76656 16.1045 6.74786C16.113 6.73755 16.1212 6.72683 16.1296 6.7162C16.1477 6.69307 16.1652 6.6693 16.1823 6.64465C16.1857 6.63973 16.1894 6.63538 16.1928 6.63038C16.1962 6.62539 16.1992 6.61975 16.203 6.61427C16.2096 6.6042 16.2168 6.59477 16.2231 6.58446C16.2312 6.571 16.2367 6.56028 16.244 6.54828C16.2541 6.53128 16.2639 6.51468 16.2725 6.49888C16.2811 6.48309 16.2886 6.46802 16.2962 6.45352C16.3037 6.43902 16.3112 6.42379 16.3175 6.41001C16.3229 6.39792 16.3282 6.38584 16.3335 6.37391C16.3486 6.33838 16.3617 6.30502 16.3726 6.27545C16.3826 6.24862 16.3908 6.22138 16.3982 6.19447C16.4076 6.16177 16.4153 6.12858 16.4212 6.09504C16.4323 6.03703 16.4383 5.98747 16.4419 5.95806L16.472 5.64841L16.5087 5.27148L16.5494 4.85377C16.5599 4.74564 16.5701 4.64089 16.5795 4.54412C16.5819 4.51455 16.5836 4.48297 16.5846 4.45025C16.5874 4.39506 16.586 4.33972 16.5803 4.28475C16.5803 4.28282 16.5797 4.28056 16.5796 4.27863C16.5791 4.27283 16.5783 4.26686 16.5777 4.26098C16.5754 4.23882 16.5721 4.21562 16.5682 4.19152C16.5655 4.17388 16.5621 4.15591 16.5584 4.1377C16.5533 4.11176 16.5479 4.08653 16.5423 4.06422C16.5418 4.0618 16.541 4.05978 16.5405 4.05745C16.5394 4.0531 16.538 4.04858 16.5368 4.04415C16.5132 3.95888 16.4831 3.87553 16.4469 3.79485C16.4289 3.75502 16.4089 3.71618 16.3868 3.6785C16.3837 3.67278 16.3815 3.66746 16.3783 3.66166C16.3751 3.65586 16.3695 3.64764 16.3655 3.64063L16.3562 3.62395C16.3466 3.60679 16.3341 3.58697 16.3206 3.5665L16.3168 3.56078C16.2995 3.53475 16.2803 3.50752 16.2599 3.4802C16.2537 3.47215 16.2476 3.46353 16.2413 3.45515C16.2039 3.40498 16.1639 3.35677 16.1216 3.31067C16.1166 3.30544 16.1105 3.29947 16.1055 3.29399C16.0966 3.28433 16.0887 3.27466 16.0795 3.26499C16.0404 3.22365 15.9911 3.17805 15.9419 3.13389C15.9189 3.11238 15.8964 3.09183 15.8755 3.07346C15.8565 3.05678 15.8345 3.03897 15.8117 3.021C15.789 3.00304 15.7627 2.98257 15.7364 2.96331C15.7155 2.94776 15.695 2.93269 15.6766 2.91916C15.443 2.75437 15.1921 2.61583 14.9283 2.50605C14.9184 2.50178 14.9082 2.49735 14.8985 2.49324C14.8866 2.48824 14.8762 2.48341 14.864 2.47841C14.8441 2.47035 14.825 2.46326 14.8053 2.45545L14.7702 2.44167C14.7243 2.42389 14.6794 2.40718 14.6354 2.39155L14.6063 2.38107L14.5845 2.3735C14.5718 2.36915 14.5589 2.36456 14.5464 2.36037C14.511 2.34836 14.4695 2.3349 14.4206 2.32008C14.4061 2.31565 14.3928 2.31202 14.3787 2.30767C14.3532 2.3001 14.3283 2.2926 14.2998 2.28463C14.1841 2.2524 14.0841 2.22822 14.0025 2.20937L13.9952 2.20768C13.9574 2.19914 13.9223 2.19156 13.8939 2.18528C13.7794 2.16054 13.5862 2.12388 13.3408 2.09535C13.2705 2.08657 13.2296 2.08214 13.1479 2.07618C13.063 2.06884 12.9747 2.06248 12.8814 2.05845C12.8368 2.05555 12.7838 2.05458 12.732 2.05386C12.7057 2.05329 12.6797 2.05289 12.6543 2.05273L12.6263 2.05225C12.6157 2.05225 12.5682 2.05225 12.5018 2.05321C12.4829 2.05321 12.4648 2.05394 12.4466 2.05442H12.4459C12.2547 2.0578 12.0638 2.07208 11.8742 2.09721L11.8111 2.10663C11.7742 2.11179 11.7363 2.11751 11.6971 2.12388C11.5708 2.14338 11.508 2.15538 11.3885 2.18318C11.368 2.18794 11.3492 2.19366 11.329 2.19865C11.2908 2.208 11.252 2.2181 11.2127 2.22895C11.18 2.23789 11.1472 2.24667 11.1155 2.2561C11.0527 2.27488 10.9888 2.2951 10.9239 2.3179H10.9232C10.8175 2.35497 10.7252 2.39356 10.6434 2.43111L10.6255 2.43917C10.6 2.45109 10.5758 2.46278 10.5527 2.47438C10.4606 2.51945 10.3712 2.56978 10.2849 2.62514L10.2777 2.62957L10.2721 2.63328C10.2603 2.64133 10.2497 2.6481 10.2392 2.65519C10.2287 2.66228 10.2163 2.67058 10.2043 2.67936C10.187 2.69153 10.1722 2.70241 10.1592 2.7116C10.1169 2.74213 10.0765 2.77493 10.0375 2.80829C10.0328 2.81215 10.0274 2.81634 10.0229 2.82029C10.0196 2.82303 10.016 2.8265 10.0126 2.8294L10.0073 2.83415C9.98967 2.84962 9.9715 2.86638 9.95294 2.88467C9.92369 2.91271 9.89612 2.94059 9.87024 2.96831L9.8573 2.98168C9.85296 2.9862 9.8483 2.9924 9.84396 2.99724C9.825 3.01835 9.80729 3.03892 9.79084 3.05896C9.78795 3.06258 9.78521 3.06548 9.78232 3.06911C9.75285 3.10501 9.72558 3.14268 9.70067 3.18191C9.68412 3.20867 9.67037 3.23115 9.6576 3.25234C9.6502 3.26458 9.64313 3.27651 9.63622 3.28852C9.62015 3.31704 9.60544 3.34427 9.59137 3.37425C9.59073 3.37562 9.58977 3.37715 9.58912 3.37852C9.58848 3.37989 9.5876 3.38206 9.58679 3.38376C9.58543 3.38682 9.58398 3.3902 9.58261 3.39326C9.56236 3.43831 9.54058 3.49205 9.52379 3.54193L9.5233 3.54321C9.51037 3.57987 9.49963 3.61727 9.49116 3.65521C9.48497 3.68011 9.48063 3.70163 9.47597 3.73063C9.47493 3.73652 9.47404 3.74328 9.47308 3.74933C9.46954 3.7735 9.46544 3.80235 9.45998 3.84231L9.32231 5.25617C9.32006 5.28558 9.31612 5.3386 9.31693 5.40717C9.31693 5.41651 9.31749 5.42546 9.31781 5.43464C9.31894 5.47243 9.32143 5.51345 9.32665 5.55833C9.32753 5.5659 9.32882 5.57299 9.32978 5.5804C9.33429 5.61468 9.3405 5.6504 9.34843 5.68757C9.3498 5.69393 9.351 5.70046 9.35245 5.70667C9.36049 5.74035 9.36924 5.77475 9.38041 5.80988C9.3817 5.81407 9.38283 5.81859 9.38411 5.82269C9.38411 5.82382 9.38476 5.82495 9.38508 5.82608C9.42075 5.93646 9.4682 6.04265 9.5266 6.14282C9.52965 6.1483 9.53327 6.15515 9.53616 6.16031C9.53673 6.16127 9.56767 6.21566 9.62352 6.29422L9.62673 6.29873C9.64755 6.32774 9.67077 6.35917 9.69826 6.39341V6.39389L9.69963 6.39542C9.71281 6.41154 9.72727 6.42886 9.7419 6.44603C9.72012 6.67003 9.69754 6.90192 9.67487 7.1343L9.66684 7.21681C9.63927 7.5002 9.61187 7.7814 9.58567 8.05085L9.56196 8.2937L4.44044 13.4783L4.37864 13.5409C4.34513 13.5748 4.31338 13.6093 4.2822 13.6438C4.27778 13.6487 4.27248 13.6533 4.26814 13.6582L4.2589 13.6686L4.25255 13.6757C4.18175 13.7554 4.09375 13.8553 4.03251 13.9372L4.02817 13.943C3.97055 14.016 3.90714 14.0985 3.86093 14.1676L3.85522 14.1764C3.79143 14.263 3.7324 14.3531 3.67842 14.4462C3.63928 14.5135 3.60874 14.5661 3.58198 14.6128C3.5786 14.6186 3.57467 14.625 3.57145 14.6306C3.55763 14.6547 3.54316 14.6812 3.52862 14.709C3.49551 14.7708 3.46561 14.8316 3.4276 14.9136L3.42615 14.9166C3.42486 14.9193 3.42374 14.9219 3.42245 14.9247C3.41675 14.937 3.41144 14.9483 3.40534 14.9617C3.40148 14.9698 3.39826 14.9778 3.39457 14.9859C3.38348 15.0106 3.37255 15.0351 3.36242 15.0596C3.3523 15.0841 3.34112 15.1098 3.33148 15.1334L3.32433 15.1512C3.29532 15.2232 3.27185 15.2873 3.25095 15.3482L3.24428 15.3675C3.23094 15.4069 3.21833 15.4453 3.20555 15.4843C3.15053 15.6581 3.10643 15.8352 3.07351 16.0145C3.03914 16.1924 3.0172 16.3724 3.00785 16.5533C3.00255 16.6155 3.0003 16.6951 3.0003 16.781C2.99933 16.8324 3.00086 16.8903 3.00303 16.9472C3.00367 16.967 3.00431 16.9865 3.0052 17.0063C3.00584 17.0234 3.00656 17.0407 3.00697 17.0563C3.00793 17.0895 3.01131 17.1356 3.01605 17.1872C3.02256 17.2705 3.03075 17.3472 3.04056 17.4066C3.04056 17.4088 3.04144 17.4115 3.04176 17.4137C3.05213 17.4914 3.06338 17.5633 3.07335 17.6116C3.10839 17.7808 3.1333 17.8936 3.16038 17.9951C3.16038 17.9958 3.16038 17.9965 3.16095 17.9972C3.16689 18.0195 3.17308 18.0412 3.17935 18.0628C3.19735 18.1252 3.21728 18.1879 3.23649 18.2401L3.2385 18.2456C3.25803 18.3014 3.28037 18.3631 3.30761 18.4369C3.34651 18.5423 3.3965 18.6544 3.44504 18.7555L3.48442 18.8385C3.55715 18.9913 3.63961 19.1394 3.7313 19.2816L3.75476 19.3171C3.80821 19.4016 3.87419 19.5007 3.95343 19.6101C3.96267 19.6231 3.97167 19.6353 3.98083 19.6479C4.14932 19.8769 4.33467 20.0929 4.53535 20.2941C4.60768 20.3687 4.69391 20.4495 4.78368 20.5299C4.90375 20.6396 5.02823 20.7479 5.13978 20.8377L5.15248 20.8484C5.25277 20.9333 5.39558 21.0351 5.50183 21.1122C5.63989 21.2124 5.81991 21.3333 5.97823 21.4293C6.10256 21.5076 6.26497 21.6019 6.45705 21.7046C6.64036 21.8064 6.74267 21.8548 7.03825 21.9947C7.19263 22.0677 7.40142 22.1591 7.56135 22.2189L7.65779 22.255C7.7711 22.2991 7.88629 22.3418 8.00336 22.383C8.24357 22.4706 8.38461 22.517 8.60449 22.5797L8.6462 22.5915C8.68268 22.6021 8.71965 22.6121 8.7563 22.6225C8.87403 22.6554 8.98494 22.6855 9.08789 22.7124C9.10002 22.7156 9.112 22.7191 9.12397 22.7223C9.14462 22.7275 9.16471 22.7323 9.18505 22.7374C9.38427 22.7881 9.55328 22.8267 9.68854 22.8521C9.85168 22.8861 9.98822 22.9117 10.0855 22.9289C10.1096 22.9333 10.1315 22.937 10.1544 22.941C10.2123 22.9509 10.245 22.9559 10.2462 22.9561L10.2496 22.9567L10.2599 22.9582C10.4282 22.9831 10.6462 23.021 10.8126 23.0388C10.9826 23.06 11.2101 23.0807 11.3805 23.0982C11.4957 23.1102 11.7137 23.1265 11.9942 23.1373C12.0935 23.142 12.36 23.1519 12.7196 23.148C12.7486 23.148 12.7778 23.1473 12.8073 23.1469L12.8368 23.1463C13.0121 23.1434 13.1939 23.1368 13.3783 23.1259L13.3999 23.1246C13.4422 23.122 13.4844 23.1193 13.5269 23.1165C13.7085 23.104 13.8965 23.087 14.0881 23.0643C14.2966 23.0407 14.5493 23.0067 14.8337 22.9547C14.9949 22.9259 15.1742 22.8902 15.3611 22.8468L15.3967 22.8383C15.6106 22.789 15.8099 22.7368 15.9897 22.6815L16.0168 22.6734C16.2494 22.6042 16.4059 22.549 16.4634 22.5279C16.6366 22.4673 16.8296 22.3942 17.0238 22.3079C17.1296 22.2608 17.2643 22.2013 17.3764 22.1454C17.4886 22.0914 17.6175 22.0187 17.7206 21.9649C17.7915 21.9279 17.8723 21.8799 17.9517 21.8308C17.9935 21.8056 18.0339 21.7805 18.0707 21.7562L18.1005 21.7366L18.1549 21.7016C18.1758 21.688 18.1985 21.6726 18.2215 21.6569C18.2818 21.6166 18.342 21.5757 18.3915 21.5381L18.4268 21.5111C18.4416 21.5006 18.457 21.4895 18.4706 21.4798C18.6131 21.3749 18.7499 21.2625 18.8805 21.1431C18.8823 21.1414 18.8846 21.1395 18.8864 21.1379L18.8937 21.1311C18.9661 21.0654 19.0431 20.9921 19.1228 20.9112C19.1327 20.9011 19.1415 20.8918 19.1511 20.8818C19.1645 20.8681 19.1778 20.8545 19.1913 20.8403L19.1962 20.835C19.2701 20.7572 19.3343 20.685 19.3921 20.6159C19.4644 20.5301 19.5261 20.4513 19.5789 20.3807L19.5962 20.3581C19.6427 20.2974 19.7007 20.2143 19.7638 20.1164C19.8482 19.9877 19.9256 19.8545 19.9957 19.7174C20.0178 19.6749 20.0396 19.6319 20.0606 19.5884C20.0774 19.5533 20.0927 19.5195 20.1077 19.4856L20.1085 19.4838C20.1246 19.4477 20.1397 19.4128 20.154 19.3784C20.1582 19.3686 20.1621 19.3595 20.1665 19.3496C20.1691 19.3435 20.1712 19.3375 20.1737 19.3315C20.1799 19.3161 20.1858 19.3013 20.1916 19.2862C20.2027 19.2582 20.2134 19.2304 20.2238 19.2028C20.228 19.1912 20.2318 19.1803 20.236 19.169C20.2444 19.1453 20.2527 19.1218 20.2606 19.0986C20.2677 19.0776 20.2743 19.0579 20.2806 19.0382C20.284 19.0279 20.2874 19.0175 20.2906 19.0073C20.3243 18.9003 20.3468 18.8166 20.3592 18.7677C20.3762 18.7025 20.3907 18.6381 20.4036 18.5754L20.4056 18.5659C20.4062 18.563 20.4066 18.5602 20.4073 18.5573C20.4131 18.5279 20.4187 18.4989 20.4238 18.4705C20.4466 18.3433 20.4633 18.2203 20.4746 18.1015Z" fill="#007DB9"/>
<path d="M12.4569 12.3337C14.9213 12.6058 18.3303 13.2288 19.5955 16.1438C20.8047 19.9515 16.0448 19.1352 11.967 18.8228C7.88915 18.5104 4.6931 16.8046 4.82836 15.0126C4.96361 13.2206 8.39167 11.8846 12.4569 12.3337Z" fill="#00D7FC"/>
<path d="M12.0582 14.8611C16.1734 16.7525 21.1546 14.0169 19.4267 18.8785C18.7297 20.8396 16.071 22.5396 11.98 22.4036C7.88889 22.2677 4.58982 20.469 4.61143 18.3865C4.63305 16.3039 8.33419 13.1496 12.0582 14.8611Z" fill="#00D7FC"/>
<path opacity="0.859" d="M13.1264 2.58257C14.6392 2.70046 15.8249 3.34425 15.7747 4.02044C15.7246 4.69663 14.4574 5.14931 12.9447 5.03142C11.432 4.91354 10.2463 4.26982 10.2965 3.59355C10.3466 2.91728 11.6136 2.46493 13.1264 2.58257Z" fill="#055F8A"/>
<path d="M12.3039 12.3327C16.131 12.6084 19.1305 14.1134 19.0035 15.6948C18.8765 17.2762 15.6712 18.3345 11.8442 18.0588C8.01717 17.7832 5.01753 16.2779 5.14451 14.6967C5.27149 13.1155 8.47686 12.0571 12.3039 12.3327Z" fill="#42E1FC"/>
<path opacity="0.212" d="M8.84332 7.06055C8.84332 7.06055 9.63009 8.31591 12.2554 8.70582C11.9524 9.52583 6.20219 16.5989 6.30249 20.0032C6.40278 23.4075 7.02843 24.2809 7.02843 24.2809L2.1644 21.3925L1.65625 13.3491L5.14113 8.12092L8.08105 7.06055" fill="white"/>
<path opacity="0.11" d="M12.7637 16.2768C14.0817 16.1782 14.9243 16.0719 15.6117 15.8721C16.6195 17.4162 18.3729 20.0959 18.4596 21.6629C18.5464 23.23 16.3237 23.8112 16.3237 23.8112C16.3237 23.8112 12.2668 26.743 13.3209 24.1848C14.3751 21.6266 12.7637 16.2768 12.7637 16.2768Z" fill="white"/>
</g>
<ellipse cx="13.8079" cy="2.5427" rx="1.06567" ry="1.07933" fill="url(#paint0_linear_2_2366)"/>
<ellipse cx="10.9172" cy="10.9211" rx="1.06567" ry="1.07933" fill="url(#paint1_linear_2_2366)"/>
<ellipse cx="14.3859" cy="13.3359" rx="1.28241" ry="1.2988" fill="url(#paint2_linear_2_2366)"/>
<ellipse cx="14.097" cy="8.76271" rx="0.776694" ry="0.786635" fill="url(#paint3_linear_2_2366)"/>
<ellipse cx="12.3987" cy="4.84744" rx="0.957291" ry="0.969506" fill="url(#paint4_linear_2_2366)"/>
<ellipse cx="11.3148" cy="0.603684" rx="0.596017" ry="0.603684" fill="url(#paint5_linear_2_2366)"/>
<path d="M8.08774 13.1348C8.08774 13.1348 6.80349 14.5307 6.13976 15.2225C5.48234 15.9077 5.49282 17.113 5.79187 17.53" stroke="white" stroke-width="1.056" stroke-linecap="round"/>
<path d="M10.5801 4.97186C10.7537 4.37521 10.8916 3.87305 10.8916 3.87305" stroke="white" stroke-width="0.704" stroke-linecap="round"/>
</g>
<defs>
<filter id="filter0_d_2_2366" x="1" y="0" width="19.4945" height="23.6489" filterUnits="userSpaceOnUse" color-interpolation-filters="sRGB">
<feFlood flood-opacity="0" result="BackgroundImageFix"/>
<feColorMatrix in="SourceAlpha" type="matrix" values="0 0 0 0 0 0 0 0 0 0 0 0 0 0 0 0 0 0 127 0" result="hardAlpha"/>
<feOffset dx="-2" dy="0.5"/>
<feColorMatrix type="matrix" values="0 0 0 0 0.93617 0 0 0 0 0.85608 0 0 0 0 0.781331 0 0 0 0.8 0"/>
<feBlend mode="normal" in2="BackgroundImageFix" result="effect1_dropShadow_2_2366"/>
<feBlend mode="normal" in="SourceGraphic" in2="effect1_dropShadow_2_2366" result="shape"/>
</filter>
<linearGradient id="paint0_linear_2_2366" x1="15.3747" y1="3.11437" x2="14.3512" y2="0.965764" gradientUnits="userSpaceOnUse">
<stop stop-color="#007DB9"/>
<stop offset="1" stop-color="#00D7FC"/>
</linearGradient>
<linearGradient id="paint1_linear_2_2366" x1="12.4841" y1="11.4928" x2="11.4606" y2="9.34418" gradientUnits="userSpaceOnUse">
<stop stop-color="#007DB9"/>
<stop offset="1" stop-color="#00D7FC"/>
</linearGradient>
<linearGradient id="paint2_linear_2_2366" x1="16.2715" y1="14.0239" x2="15.0399" y2="11.4383" gradientUnits="userSpaceOnUse">
<stop stop-color="#007DB9"/>
<stop offset="1" stop-color="#00D7FC"/>
</linearGradient>
<linearGradient id="paint3_linear_2_2366" x1="15.239" y1="9.17937" x2="14.4931" y2="7.6134" gradientUnits="userSpaceOnUse">
<stop stop-color="#007DB9"/>
<stop offset="1" stop-color="#00D7FC"/>
</linearGradient>
<linearGradient id="paint4_linear_2_2366" x1="13.8062" y1="5.36099" x2="12.8869" y2="3.43096" gradientUnits="userSpaceOnUse">
<stop stop-color="#007DB9"/>
<stop offset="1" stop-color="#00D7FC"/>
</linearGradient>
<linearGradient id="paint5_linear_2_2366" x1="12.1911" y1="0.923402" x2="11.6186" y2="-0.278328" gradientUnits="userSpaceOnUse">
<stop stop-color="#007DB9"/>
<stop offset="1" stop-color="#00D7FC"/>
</linearGradient>
</defs>
</svg>
