<svg width="24" height="24" viewBox="0 0 24 24" fill="none" xmlns="http://www.w3.org/2000/svg">
<g filter="url(#filter0_d_2_2549)">
<path d="M7.7258 20.6873L10.8928 18.0399C13.368 20.318 17.1409 20.4038 19.7162 18.2404C23.3023 15.2485 23.8042 9.90853 20.8389 6.29579L20.8315 6.28674C19.0502 4.12254 16.4837 2.75985 13.6994 2.49995C10.9152 2.24005 8.14247 3.10435 5.99433 4.90175L5.9929 4.90293C1.95128 8.28511 0.286211 13.7482 1.75053 18.8221C2.09701 20.0399 3.03156 21.0002 4.23605 21.3762C5.44054 21.7522 6.75266 21.4932 7.72574 20.6873H7.7258Z" fill="#0EF5CE"/>
<path d="M4.50904 6.97436C5.42722 5.91574 6.48518 4.85706 7.76272 4.23801C9.73899 3.25933 11.9745 2.5203 14.2501 2.77999C14.5214 2.78682 14.7876 2.85512 15.0286 2.97972C15.2611 3.11886 15.4047 3.36833 15.4078 3.63881C15.3679 4.09817 14.789 4.27798 14.31 4.33787C13.8309 4.39777 13.0524 4.39777 12.4136 4.47771C10.5173 4.75732 8.84052 5.81594 7.4033 7.01433C5.46703 8.61219 4.80816 10.7493 5.12771 13.1261C5.28738 14.3844 6.1058 16.1821 4.90813 17.1608C4.26276 17.6868 3.35022 17.7353 2.6525 17.2806C1.31506 16.3418 1.83409 13.5456 2.07364 12.2273C2.41364 10.2948 3.25308 8.4842 4.50904 6.97436Z" fill="#65FFE5"/>
<path opacity="0.95" d="M10.3631 5.18164C8.48964 5.98566 6.1124 7.61321 5.04492 10.9089" stroke="white" stroke-width="0.954545" stroke-linecap="round"/>
<path opacity="0.95" d="M12.9535 4.36377C12.4902 4.4121 12.0334 4.50347 11.5898 4.6365" stroke="white" stroke-width="0.954545" stroke-linecap="round"/>
<path d="M11.0718 10.0895C10.0793 11.1079 9.66246 12.3058 9.68232 13.7434C9.68232 14.1228 9.88081 14.8416 10.4167 14.5024C10.5892 14.3894 10.7049 14.2074 10.7343 14.0029C10.7939 13.6834 10.7144 13.3241 10.7343 12.9646C10.7826 12.2918 11.0087 11.6439 11.3894 11.0877C11.6678 10.7073 12.0557 10.4216 12.501 10.2691C12.739 10.1918 12.9857 10.1449 13.2354 10.1293C13.5135 10.0893 13.811 10.1493 14.0891 10.1093C14.3672 10.0694 14.764 9.92962 14.7243 9.53028C14.6846 9.13095 13.712 8.95126 13.2756 9.01133C12.4446 9.12408 11.6719 9.5021 11.0718 10.0895Z" fill="#65FFE5"/>
<path d="M12.8176 10.2275C12.0111 10.3669 11.3365 10.9377 11.0449 11.7275" stroke="white" stroke-width="0.954545" stroke-linecap="round"/>
<path d="M21.2763 16.5089C23.4234 13.3686 23.2453 9.17039 20.8402 6.22705C20.3088 5.58112 19.7031 5.00136 19.0361 4.5C19.411 4.84336 19.7621 5.21244 20.0868 5.60463C23.0831 9.27897 22.5782 14.7077 18.9567 17.7542C17.0606 19.366 14.442 19.7978 12.1367 18.8788C14.5583 20.2856 17.5924 20.0128 19.7299 18.196C20.3255 17.7145 20.8466 17.1459 21.2762 16.5091" fill="#02D3B0"/>
<path d="M10.9236 18.0388C10.9236 18.0388 8.8999 16.6527 9.00105 13.3655C9.2846 8.85063 13.6355 8.45459 13.6355 8.45459C13.0284 8.51397 12.4617 8.51397 11.8748 8.69224C10.6394 9.02074 9.58123 9.80092 8.92001 10.8707C8.3213 11.863 8.04604 13.0094 8.13076 14.1579C8.19149 15.0291 8.49502 15.841 8.77837 16.6727C9.06172 17.5044 9.16287 18.1777 8.98074 18.8708C8.79861 19.5638 8.33313 20.019 7.9082 20.4546L10.9236 18.0388Z" fill="#02D3B0"/>
<path d="M17.0618 10.3584C16.7529 9.98137 16.3796 9.66014 15.9585 9.40918C16.2279 9.60904 16.4705 9.84161 16.6806 10.1014C17.9014 11.5576 17.7047 13.7079 16.2393 14.9267C15.3523 15.659 14.0949 15.7695 13.0898 15.2035C14.1115 16.0306 15.5883 16.0223 16.6003 15.1837C18.0791 13.9791 18.2887 11.8259 17.0693 10.3673L17.0618 10.3584Z" fill="#02D3B0"/>
<path d="M3.45416 18.8722C3.79639 18.9408 4.14765 18.9478 4.49221 18.8928C5.0112 18.8107 5.51029 18.4616 6.00938 18.5643C6.1189 18.5869 6.22151 18.6362 6.30858 18.708C6.559 18.9537 6.61639 19.3417 6.4483 19.6525C6.10896 20.3095 5.2905 20.4737 4.63173 20.4529C3.97295 20.4321 3.15449 20.2476 2.69534 19.7138C2.5246 19.5505 2.43631 19.3159 2.45578 19.0773C2.57579 18.5437 3.15469 18.8311 3.45416 18.8722Z" fill="#65FFE5"/>
</g>
<defs>
<filter id="filter0_d_2_2549" x="0.226562" y="2.45459" width="22.5465" height="19.5909" filterUnits="userSpaceOnUse" color-interpolation-filters="sRGB">
<feFlood flood-opacity="0" result="BackgroundImageFix"/>
<feColorMatrix in="SourceAlpha" type="matrix" values="0 0 0 0 0 0 0 0 0 0 0 0 0 0 0 0 0 0 127 0" result="hardAlpha"/>
<feOffset dx="-1" dy="0.5"/>
<feColorMatrix type="matrix" values="0 0 0 0 0.93617 0 0 0 0 0.85608 0 0 0 0 0.781331 0 0 0 0.8 0"/>
<feBlend mode="normal" in2="BackgroundImageFix" result="effect1_dropShadow_2_2549"/>
<feBlend mode="normal" in="SourceGraphic" in2="effect1_dropShadow_2_2549" result="shape"/>
</filter>
</defs>
</svg>
